M48
; DRILL file {KiCad (6.0.5)} date Sat Jan 28 11:11:27 2023
; FORMAT={-:-/ absolute / metric / decimal}
; #@! TF.CreationDate,2023-01-28T11:11:27-05:00
; #@! TF.GenerationSoftware,Kicad,Pcbnew,(6.0.5)
; #@! TF.FileFunction,Plated,1,2,PTH
FMAT,2
METRIC
; #@! TA.AperFunction,Plated,PTH,ViaDrill
T1C0.300
; #@! TA.AperFunction,Plated,PTH,ComponentDrill
T2C1.000
%
G90
G05
T1
X120.758Y-79.684
X120.758Y-80.784
X120.758Y-81.884
X120.758Y-82.984
X120.758Y-86.784
X120.758Y-87.884
X120.758Y-88.984
X120.758Y-90.084
X121.505Y-95.401
X122.058Y-79.684
X122.058Y-80.784
X122.058Y-81.884
X122.058Y-82.984
X122.758Y-98.384
X122.758Y-99.684
X123.805Y-90.801
X123.858Y-98.384
X123.858Y-99.684
X124.958Y-98.384
X124.958Y-99.684
X125.105Y-94.201
X125.558Y-83.484
X125.558Y-84.584
X125.558Y-85.684
X125.558Y-86.784
X125.705Y-90.301
X125.805Y-94.201
X126.058Y-98.384
X126.058Y-99.684
X126.705Y-94.001
X127.205Y-91.701
X127.205Y-92.401
X127.305Y-96.901
X127.758Y-83.384
X127.758Y-84.484
X127.758Y-85.584
X127.758Y-86.684
X128.205Y-89.001
X128.305Y-94.801
X129.258Y-96.284
X129.258Y-97.384
X129.258Y-98.484
X129.258Y-99.584
X130.358Y-83.484
X130.358Y-84.584
X130.358Y-85.684
X130.358Y-86.784
X130.705Y-87.701
X130.758Y-96.284
X130.758Y-97.384
X130.758Y-98.484
X130.758Y-99.584
X132.058Y-96.284
X132.058Y-97.384
X132.058Y-98.484
X132.058Y-99.584
X133.058Y-83.284
X133.058Y-84.384
X133.058Y-85.484
X133.058Y-86.584
X133.905Y-96.201
X134.405Y-91.501
X135.458Y-84.484
X135.458Y-85.584
X135.458Y-86.684
X135.758Y-94.684
X135.758Y-95.784
X135.758Y-96.884
X135.758Y-97.984
X136.005Y-87.801
X137.258Y-94.684
X137.258Y-95.784
X137.258Y-96.884
X137.258Y-97.984
X138.058Y-83.984
X138.058Y-85.084
X138.058Y-86.184
X138.058Y-87.284
X138.558Y-94.684
X138.558Y-95.784
X138.558Y-96.884
X138.558Y-97.984
X139.558Y-83.984
X139.558Y-85.084
X139.558Y-86.184
X139.558Y-87.284
X139.858Y-94.684
X139.858Y-95.784
X139.858Y-96.884
X139.858Y-97.984
X140.858Y-83.984
X140.858Y-85.084
X140.858Y-86.184
X140.858Y-87.284
X141.358Y-94.684
X141.358Y-95.784
X141.358Y-96.884
X141.358Y-97.984
X141.558Y-89.984
X141.558Y-91.084
X141.558Y-92.184
X141.558Y-93.284
X142.658Y-94.684
X142.658Y-95.784
X142.658Y-96.884
X142.658Y-97.984
X142.858Y-89.984
X142.858Y-91.084
X142.858Y-92.184
X142.858Y-93.284
X143.458Y-83.884
X143.458Y-84.984
X143.458Y-86.084
X143.458Y-87.184
T2
X124.253Y-81.384
X126.793Y-81.384
X129.333Y-81.384
X131.873Y-81.384
X134.413Y-81.384
X136.953Y-81.384
X139.493Y-81.384
X142.033Y-81.384
T0
M30
