%FSLAX45Y45*%
G04 Gerber Fmt 4.5, Leading zero omitted, Abs format (unit mm)*
G04 Created by KiCad (PCBNEW (6.0.5)) date 2023-01-28 11:11:28*
%MOMM*%
%LPD*%
G01*
G04 APERTURE LIST*
%TA.AperFunction,Profile*%
%ADD10C,0.150000*%
%TD*%
%ADD11C,0.200000*%
%ADD12C,0.030000*%
%ADD13C,0.100000*%
G04 APERTURE END LIST*
D10*
X14445758Y-10138382D02*
X11975758Y-10138382D01*
X11975758Y-7868382D01*
X14445758Y-7868382D01*
X14445758Y-10138382D01*
D11*
D12*
X12060758Y-7953382D02*
X12090758Y-7983382D01*
X12090758Y-7953382D02*
X12060758Y-7983382D01*
X12060758Y-8063382D02*
X12090758Y-8093382D01*
X12090758Y-8063382D02*
X12060758Y-8093382D01*
X12060758Y-8173382D02*
X12090758Y-8203382D01*
X12090758Y-8173382D02*
X12060758Y-8203382D01*
X12060758Y-8283382D02*
X12090758Y-8313382D01*
X12090758Y-8283382D02*
X12060758Y-8313382D01*
X12060758Y-8663382D02*
X12090758Y-8693382D01*
X12090758Y-8663382D02*
X12060758Y-8693382D01*
X12060758Y-8773382D02*
X12090758Y-8803382D01*
X12090758Y-8773382D02*
X12060758Y-8803382D01*
X12060758Y-8883382D02*
X12090758Y-8913382D01*
X12090758Y-8883382D02*
X12060758Y-8913382D01*
X12060758Y-8993382D02*
X12090758Y-9023382D01*
X12090758Y-8993382D02*
X12060758Y-9023382D01*
X12135508Y-9525132D02*
X12165508Y-9555132D01*
X12165508Y-9525132D02*
X12135508Y-9555132D01*
X12190758Y-7953382D02*
X12220758Y-7983382D01*
X12220758Y-7953382D02*
X12190758Y-7983382D01*
X12190758Y-8063382D02*
X12220758Y-8093382D01*
X12220758Y-8063382D02*
X12190758Y-8093382D01*
X12190758Y-8173382D02*
X12220758Y-8203382D01*
X12220758Y-8173382D02*
X12190758Y-8203382D01*
X12190758Y-8283382D02*
X12220758Y-8313382D01*
X12220758Y-8283382D02*
X12190758Y-8313382D01*
X12260758Y-9823382D02*
X12290758Y-9853382D01*
X12290758Y-9823382D02*
X12260758Y-9853382D01*
X12260758Y-9953382D02*
X12290758Y-9983382D01*
X12290758Y-9953382D02*
X12260758Y-9983382D01*
X12365507Y-9065131D02*
X12395507Y-9095131D01*
X12395507Y-9065131D02*
X12365507Y-9095131D01*
X12370758Y-9823382D02*
X12400758Y-9853382D01*
X12400758Y-9823382D02*
X12370758Y-9853382D01*
X12370758Y-9953382D02*
X12400758Y-9983382D01*
X12400758Y-9953382D02*
X12370758Y-9983382D01*
X12480758Y-9823382D02*
X12510758Y-9853382D01*
X12510758Y-9823382D02*
X12480758Y-9853382D01*
X12480758Y-9953382D02*
X12510758Y-9983382D01*
X12510758Y-9953382D02*
X12480758Y-9983382D01*
X12495508Y-9405132D02*
X12525508Y-9435132D01*
X12525508Y-9405132D02*
X12495508Y-9435132D01*
X12540758Y-8333382D02*
X12570758Y-8363382D01*
X12570758Y-8333382D02*
X12540758Y-8363382D01*
X12540758Y-8443382D02*
X12570758Y-8473382D01*
X12570758Y-8443382D02*
X12540758Y-8473382D01*
X12540758Y-8553382D02*
X12570758Y-8583382D01*
X12570758Y-8553382D02*
X12540758Y-8583382D01*
X12540758Y-8663382D02*
X12570758Y-8693382D01*
X12570758Y-8663382D02*
X12540758Y-8693382D01*
X12555508Y-9015132D02*
X12585508Y-9045132D01*
X12585508Y-9015132D02*
X12555508Y-9045132D01*
X12565508Y-9405132D02*
X12595508Y-9435132D01*
X12595508Y-9405132D02*
X12565508Y-9435132D01*
X12590758Y-9823382D02*
X12620758Y-9853382D01*
X12620758Y-9823382D02*
X12590758Y-9853382D01*
X12590758Y-9953382D02*
X12620758Y-9983382D01*
X12620758Y-9953382D02*
X12590758Y-9983382D01*
X12655507Y-9385133D02*
X12685507Y-9415133D01*
X12685507Y-9385133D02*
X12655507Y-9415133D01*
X12705507Y-9155132D02*
X12735507Y-9185132D01*
X12735507Y-9155132D02*
X12705507Y-9185132D01*
X12705508Y-9225132D02*
X12735508Y-9255132D01*
X12735508Y-9225132D02*
X12705508Y-9255132D01*
X12715508Y-9675132D02*
X12745508Y-9705132D01*
X12745508Y-9675132D02*
X12715508Y-9705132D01*
X12760758Y-8323382D02*
X12790758Y-8353382D01*
X12790758Y-8323382D02*
X12760758Y-8353382D01*
X12760758Y-8433382D02*
X12790758Y-8463382D01*
X12790758Y-8433382D02*
X12760758Y-8463382D01*
X12760758Y-8543382D02*
X12790758Y-8573382D01*
X12790758Y-8543382D02*
X12760758Y-8573382D01*
X12760758Y-8653382D02*
X12790758Y-8683382D01*
X12790758Y-8653382D02*
X12760758Y-8683382D01*
X12805509Y-8885132D02*
X12835509Y-8915132D01*
X12835509Y-8885132D02*
X12805509Y-8915132D01*
X12815508Y-9465132D02*
X12845508Y-9495132D01*
X12845508Y-9465132D02*
X12815508Y-9495132D01*
X12910758Y-9613381D02*
X12940758Y-9643381D01*
X12940758Y-9613381D02*
X12910758Y-9643381D01*
X12910758Y-9723381D02*
X12940758Y-9753381D01*
X12940758Y-9723381D02*
X12910758Y-9753381D01*
X12910758Y-9833381D02*
X12940758Y-9863381D01*
X12940758Y-9833381D02*
X12910758Y-9863381D01*
X12910758Y-9943381D02*
X12940758Y-9973381D01*
X12940758Y-9943381D02*
X12910758Y-9973381D01*
X13020758Y-8333382D02*
X13050758Y-8363382D01*
X13050758Y-8333382D02*
X13020758Y-8363382D01*
X13020758Y-8443382D02*
X13050758Y-8473382D01*
X13050758Y-8443382D02*
X13020758Y-8473382D01*
X13020758Y-8553382D02*
X13050758Y-8583382D01*
X13050758Y-8553382D02*
X13020758Y-8583382D01*
X13020758Y-8663382D02*
X13050758Y-8693382D01*
X13050758Y-8663382D02*
X13020758Y-8693382D01*
X13055508Y-8755132D02*
X13085508Y-8785132D01*
X13085508Y-8755132D02*
X13055508Y-8785132D01*
X13060758Y-9613382D02*
X13090758Y-9643382D01*
X13090758Y-9613382D02*
X13060758Y-9643382D01*
X13060758Y-9723382D02*
X13090758Y-9753382D01*
X13090758Y-9723382D02*
X13060758Y-9753382D01*
X13060758Y-9833382D02*
X13090758Y-9863382D01*
X13090758Y-9833382D02*
X13060758Y-9863382D01*
X13060758Y-9943382D02*
X13090758Y-9973382D01*
X13090758Y-9943382D02*
X13060758Y-9973382D01*
X13190758Y-9613382D02*
X13220758Y-9643382D01*
X13220758Y-9613382D02*
X13190758Y-9643382D01*
X13190758Y-9723382D02*
X13220758Y-9753382D01*
X13220758Y-9723382D02*
X13190758Y-9753382D01*
X13190758Y-9833382D02*
X13220758Y-9863382D01*
X13220758Y-9833382D02*
X13190758Y-9863382D01*
X13190758Y-9943382D02*
X13220758Y-9973382D01*
X13220758Y-9943382D02*
X13190758Y-9973382D01*
X13290758Y-8313382D02*
X13320758Y-8343382D01*
X13320758Y-8313382D02*
X13290758Y-8343382D01*
X13290758Y-8423382D02*
X13320758Y-8453382D01*
X13320758Y-8423382D02*
X13290758Y-8453382D01*
X13290758Y-8533382D02*
X13320758Y-8563382D01*
X13320758Y-8533382D02*
X13290758Y-8563382D01*
X13290758Y-8643382D02*
X13320758Y-8673382D01*
X13320758Y-8643382D02*
X13290758Y-8673382D01*
X13375508Y-9605133D02*
X13405508Y-9635133D01*
X13405508Y-9605133D02*
X13375508Y-9635133D01*
X13425508Y-9135132D02*
X13455508Y-9165132D01*
X13455508Y-9135132D02*
X13425508Y-9165132D01*
X13530758Y-8433382D02*
X13560758Y-8463382D01*
X13560758Y-8433382D02*
X13530758Y-8463382D01*
X13530758Y-8543382D02*
X13560758Y-8573382D01*
X13560758Y-8543382D02*
X13530758Y-8573382D01*
X13530758Y-8653382D02*
X13560758Y-8683382D01*
X13560758Y-8653382D02*
X13530758Y-8683382D01*
X13560758Y-9453381D02*
X13590758Y-9483381D01*
X13590758Y-9453381D02*
X13560758Y-9483381D01*
X13560758Y-9563381D02*
X13590758Y-9593381D01*
X13590758Y-9563381D02*
X13560758Y-9593381D01*
X13560758Y-9673381D02*
X13590758Y-9703381D01*
X13590758Y-9673381D02*
X13560758Y-9703381D01*
X13560758Y-9783381D02*
X13590758Y-9813381D01*
X13590758Y-9783381D02*
X13560758Y-9813381D01*
X13585507Y-8765132D02*
X13615507Y-8795132D01*
X13615507Y-8765132D02*
X13585507Y-8795132D01*
X13710758Y-9453382D02*
X13740758Y-9483382D01*
X13740758Y-9453382D02*
X13710758Y-9483382D01*
X13710758Y-9563382D02*
X13740758Y-9593382D01*
X13740758Y-9563382D02*
X13710758Y-9593382D01*
X13710758Y-9673382D02*
X13740758Y-9703382D01*
X13740758Y-9673382D02*
X13710758Y-9703382D01*
X13710758Y-9783382D02*
X13740758Y-9813382D01*
X13740758Y-9783382D02*
X13710758Y-9813382D01*
X13790758Y-8383381D02*
X13820758Y-8413381D01*
X13820758Y-8383381D02*
X13790758Y-8413381D01*
X13790758Y-8493381D02*
X13820758Y-8523381D01*
X13820758Y-8493381D02*
X13790758Y-8523381D01*
X13790758Y-8603381D02*
X13820758Y-8633381D01*
X13820758Y-8603381D02*
X13790758Y-8633381D01*
X13790758Y-8713381D02*
X13820758Y-8743381D01*
X13820758Y-8713381D02*
X13790758Y-8743381D01*
X13840758Y-9453382D02*
X13870758Y-9483382D01*
X13870758Y-9453382D02*
X13840758Y-9483382D01*
X13840758Y-9563382D02*
X13870758Y-9593382D01*
X13870758Y-9563382D02*
X13840758Y-9593382D01*
X13840758Y-9673382D02*
X13870758Y-9703382D01*
X13870758Y-9673382D02*
X13840758Y-9703382D01*
X13840758Y-9783382D02*
X13870758Y-9813382D01*
X13870758Y-9783382D02*
X13840758Y-9813382D01*
X13940758Y-8383382D02*
X13970758Y-8413382D01*
X13970758Y-8383382D02*
X13940758Y-8413382D01*
X13940758Y-8493382D02*
X13970758Y-8523382D01*
X13970758Y-8493382D02*
X13940758Y-8523382D01*
X13940758Y-8603382D02*
X13970758Y-8633382D01*
X13970758Y-8603382D02*
X13940758Y-8633382D01*
X13940758Y-8713382D02*
X13970758Y-8743382D01*
X13970758Y-8713382D02*
X13940758Y-8743382D01*
X13970758Y-9453381D02*
X14000758Y-9483381D01*
X14000758Y-9453381D02*
X13970758Y-9483381D01*
X13970758Y-9563381D02*
X14000758Y-9593381D01*
X14000758Y-9563381D02*
X13970758Y-9593381D01*
X13970758Y-9673381D02*
X14000758Y-9703381D01*
X14000758Y-9673381D02*
X13970758Y-9703381D01*
X13970758Y-9783381D02*
X14000758Y-9813381D01*
X14000758Y-9783381D02*
X13970758Y-9813381D01*
X14070758Y-8383382D02*
X14100758Y-8413382D01*
X14100758Y-8383382D02*
X14070758Y-8413382D01*
X14070758Y-8493382D02*
X14100758Y-8523382D01*
X14100758Y-8493382D02*
X14070758Y-8523382D01*
X14070758Y-8603382D02*
X14100758Y-8633382D01*
X14100758Y-8603382D02*
X14070758Y-8633382D01*
X14070758Y-8713382D02*
X14100758Y-8743382D01*
X14100758Y-8713382D02*
X14070758Y-8743382D01*
X14120758Y-9453382D02*
X14150758Y-9483382D01*
X14150758Y-9453382D02*
X14120758Y-9483382D01*
X14120758Y-9563382D02*
X14150758Y-9593382D01*
X14150758Y-9563382D02*
X14120758Y-9593382D01*
X14120758Y-9673382D02*
X14150758Y-9703382D01*
X14150758Y-9673382D02*
X14120758Y-9703382D01*
X14120758Y-9783382D02*
X14150758Y-9813382D01*
X14150758Y-9783382D02*
X14120758Y-9813382D01*
X14140758Y-8983382D02*
X14170758Y-9013382D01*
X14170758Y-8983382D02*
X14140758Y-9013382D01*
X14140758Y-9093382D02*
X14170758Y-9123382D01*
X14170758Y-9093382D02*
X14140758Y-9123382D01*
X14140758Y-9203382D02*
X14170758Y-9233382D01*
X14170758Y-9203382D02*
X14140758Y-9233382D01*
X14140758Y-9313382D02*
X14170758Y-9343382D01*
X14170758Y-9313382D02*
X14140758Y-9343382D01*
X14250758Y-9453382D02*
X14280758Y-9483382D01*
X14280758Y-9453382D02*
X14250758Y-9483382D01*
X14250758Y-9563382D02*
X14280758Y-9593382D01*
X14280758Y-9563382D02*
X14250758Y-9593382D01*
X14250758Y-9673382D02*
X14280758Y-9703382D01*
X14280758Y-9673382D02*
X14250758Y-9703382D01*
X14250758Y-9783382D02*
X14280758Y-9813382D01*
X14280758Y-9783382D02*
X14250758Y-9813382D01*
X14270758Y-8983382D02*
X14300758Y-9013382D01*
X14300758Y-8983382D02*
X14270758Y-9013382D01*
X14270758Y-9093382D02*
X14300758Y-9123382D01*
X14300758Y-9093382D02*
X14270758Y-9123382D01*
X14270758Y-9203382D02*
X14300758Y-9233382D01*
X14300758Y-9203382D02*
X14270758Y-9233382D01*
X14270758Y-9313382D02*
X14300758Y-9343382D01*
X14300758Y-9313382D02*
X14270758Y-9343382D01*
X14330758Y-8373382D02*
X14360758Y-8403382D01*
X14360758Y-8373382D02*
X14330758Y-8403382D01*
X14330758Y-8483382D02*
X14360758Y-8513382D01*
X14360758Y-8483382D02*
X14330758Y-8513382D01*
X14330758Y-8593382D02*
X14360758Y-8623382D01*
X14360758Y-8593382D02*
X14330758Y-8623382D01*
X14330758Y-8703382D02*
X14360758Y-8733382D01*
X14360758Y-8703382D02*
X14330758Y-8733382D01*
D13*
X12475258Y-8138382D02*
G75*
G03*
X12475258Y-8138382I-50000J0D01*
G01*
X12729258Y-8138382D02*
G75*
G03*
X12729258Y-8138382I-50000J0D01*
G01*
X12983258Y-8138382D02*
G75*
G03*
X12983258Y-8138382I-50000J0D01*
G01*
X13237258Y-8138382D02*
G75*
G03*
X13237258Y-8138382I-50000J0D01*
G01*
X13491258Y-8138382D02*
G75*
G03*
X13491258Y-8138382I-50000J0D01*
G01*
X13745258Y-8138382D02*
G75*
G03*
X13745258Y-8138382I-50000J0D01*
G01*
X13999258Y-8138382D02*
G75*
G03*
X13999258Y-8138382I-50000J0D01*
G01*
X14253258Y-8138382D02*
G75*
G03*
X14253258Y-8138382I-50000J0D01*
G01*
D11*
X12225877Y-10456358D02*
X12225877Y-10256358D01*
X12273496Y-10256358D01*
X12302067Y-10265882D01*
X12321115Y-10284930D01*
X12330639Y-10303977D01*
X12340163Y-10342072D01*
X12340163Y-10370644D01*
X12330639Y-10408739D01*
X12321115Y-10427787D01*
X12302067Y-10446834D01*
X12273496Y-10456358D01*
X12225877Y-10456358D01*
X12425877Y-10456358D02*
X12425877Y-10323025D01*
X12425877Y-10361120D02*
X12435401Y-10342072D01*
X12444925Y-10332549D01*
X12463972Y-10323025D01*
X12483020Y-10323025D01*
X12549686Y-10456358D02*
X12549686Y-10323025D01*
X12549686Y-10256358D02*
X12540163Y-10265882D01*
X12549686Y-10275406D01*
X12559210Y-10265882D01*
X12549686Y-10256358D01*
X12549686Y-10275406D01*
X12673496Y-10456358D02*
X12654448Y-10446834D01*
X12644925Y-10427787D01*
X12644925Y-10256358D01*
X12778258Y-10456358D02*
X12759210Y-10446834D01*
X12749686Y-10427787D01*
X12749686Y-10256358D01*
X13006829Y-10456358D02*
X13006829Y-10256358D01*
X13073496Y-10399215D01*
X13140163Y-10256358D01*
X13140163Y-10456358D01*
X13321115Y-10456358D02*
X13321115Y-10351596D01*
X13311591Y-10332549D01*
X13292544Y-10323025D01*
X13254448Y-10323025D01*
X13235401Y-10332549D01*
X13321115Y-10446834D02*
X13302067Y-10456358D01*
X13254448Y-10456358D01*
X13235401Y-10446834D01*
X13225877Y-10427787D01*
X13225877Y-10408739D01*
X13235401Y-10389692D01*
X13254448Y-10380168D01*
X13302067Y-10380168D01*
X13321115Y-10370644D01*
X13416353Y-10323025D02*
X13416353Y-10523025D01*
X13416353Y-10332549D02*
X13435401Y-10323025D01*
X13473496Y-10323025D01*
X13492544Y-10332549D01*
X13502067Y-10342072D01*
X13511591Y-10361120D01*
X13511591Y-10418263D01*
X13502067Y-10437311D01*
X13492544Y-10446834D01*
X13473496Y-10456358D01*
X13435401Y-10456358D01*
X13416353Y-10446834D01*
X13597306Y-10437311D02*
X13606829Y-10446834D01*
X13597306Y-10456358D01*
X13587782Y-10446834D01*
X13597306Y-10437311D01*
X13597306Y-10456358D01*
X13597306Y-10332549D02*
X13606829Y-10342072D01*
X13597306Y-10351596D01*
X13587782Y-10342072D01*
X13597306Y-10332549D01*
X13597306Y-10351596D01*
D12*
X11938258Y-10770882D02*
X11968258Y-10800882D01*
X11968258Y-10770882D02*
X11938258Y-10800882D01*
D11*
X12263972Y-10676358D02*
X12283020Y-10676358D01*
X12302067Y-10685882D01*
X12311591Y-10695406D01*
X12321115Y-10714453D01*
X12330639Y-10752549D01*
X12330639Y-10800168D01*
X12321115Y-10838263D01*
X12311591Y-10857311D01*
X12302067Y-10866834D01*
X12283020Y-10876358D01*
X12263972Y-10876358D01*
X12244925Y-10866834D01*
X12235401Y-10857311D01*
X12225877Y-10838263D01*
X12216353Y-10800168D01*
X12216353Y-10752549D01*
X12225877Y-10714453D01*
X12235401Y-10695406D01*
X12244925Y-10685882D01*
X12263972Y-10676358D01*
X12416353Y-10857311D02*
X12425877Y-10866834D01*
X12416353Y-10876358D01*
X12406829Y-10866834D01*
X12416353Y-10857311D01*
X12416353Y-10876358D01*
X12492544Y-10676358D02*
X12616353Y-10676358D01*
X12549686Y-10752549D01*
X12578258Y-10752549D01*
X12597306Y-10762072D01*
X12606829Y-10771596D01*
X12616353Y-10790644D01*
X12616353Y-10838263D01*
X12606829Y-10857311D01*
X12597306Y-10866834D01*
X12578258Y-10876358D01*
X12521115Y-10876358D01*
X12502067Y-10866834D01*
X12492544Y-10857311D01*
X12740163Y-10676358D02*
X12759210Y-10676358D01*
X12778258Y-10685882D01*
X12787782Y-10695406D01*
X12797306Y-10714453D01*
X12806829Y-10752549D01*
X12806829Y-10800168D01*
X12797306Y-10838263D01*
X12787782Y-10857311D01*
X12778258Y-10866834D01*
X12759210Y-10876358D01*
X12740163Y-10876358D01*
X12721115Y-10866834D01*
X12711591Y-10857311D01*
X12702067Y-10838263D01*
X12692544Y-10800168D01*
X12692544Y-10752549D01*
X12702067Y-10714453D01*
X12711591Y-10695406D01*
X12721115Y-10685882D01*
X12740163Y-10676358D01*
X12930639Y-10676358D02*
X12949686Y-10676358D01*
X12968734Y-10685882D01*
X12978258Y-10695406D01*
X12987782Y-10714453D01*
X12997306Y-10752549D01*
X12997306Y-10800168D01*
X12987782Y-10838263D01*
X12978258Y-10857311D01*
X12968734Y-10866834D01*
X12949686Y-10876358D01*
X12930639Y-10876358D01*
X12911591Y-10866834D01*
X12902067Y-10857311D01*
X12892544Y-10838263D01*
X12883020Y-10800168D01*
X12883020Y-10752549D01*
X12892544Y-10714453D01*
X12902067Y-10695406D01*
X12911591Y-10685882D01*
X12930639Y-10676358D01*
X13083020Y-10876358D02*
X13083020Y-10743025D01*
X13083020Y-10762072D02*
X13092544Y-10752549D01*
X13111591Y-10743025D01*
X13140163Y-10743025D01*
X13159210Y-10752549D01*
X13168734Y-10771596D01*
X13168734Y-10876358D01*
X13168734Y-10771596D02*
X13178258Y-10752549D01*
X13197306Y-10743025D01*
X13225877Y-10743025D01*
X13244925Y-10752549D01*
X13254448Y-10771596D01*
X13254448Y-10876358D01*
X13349686Y-10876358D02*
X13349686Y-10743025D01*
X13349686Y-10762072D02*
X13359210Y-10752549D01*
X13378258Y-10743025D01*
X13406829Y-10743025D01*
X13425877Y-10752549D01*
X13435401Y-10771596D01*
X13435401Y-10876358D01*
X13435401Y-10771596D02*
X13444925Y-10752549D01*
X13463972Y-10743025D01*
X13492544Y-10743025D01*
X13511591Y-10752549D01*
X13521115Y-10771596D01*
X13521115Y-10876358D01*
X13911591Y-10666834D02*
X13740163Y-10923977D01*
X14168734Y-10676358D02*
X14187782Y-10676358D01*
X14206829Y-10685882D01*
X14216353Y-10695406D01*
X14225877Y-10714453D01*
X14235401Y-10752549D01*
X14235401Y-10800168D01*
X14225877Y-10838263D01*
X14216353Y-10857311D01*
X14206829Y-10866834D01*
X14187782Y-10876358D01*
X14168734Y-10876358D01*
X14149686Y-10866834D01*
X14140163Y-10857311D01*
X14130639Y-10838263D01*
X14121115Y-10800168D01*
X14121115Y-10752549D01*
X14130639Y-10714453D01*
X14140163Y-10695406D01*
X14149686Y-10685882D01*
X14168734Y-10676358D01*
X14321115Y-10857311D02*
X14330639Y-10866834D01*
X14321115Y-10876358D01*
X14311591Y-10866834D01*
X14321115Y-10857311D01*
X14321115Y-10876358D01*
X14454448Y-10676358D02*
X14473496Y-10676358D01*
X14492544Y-10685882D01*
X14502067Y-10695406D01*
X14511591Y-10714453D01*
X14521115Y-10752549D01*
X14521115Y-10800168D01*
X14511591Y-10838263D01*
X14502067Y-10857311D01*
X14492544Y-10866834D01*
X14473496Y-10876358D01*
X14454448Y-10876358D01*
X14435401Y-10866834D01*
X14425877Y-10857311D01*
X14416353Y-10838263D01*
X14406829Y-10800168D01*
X14406829Y-10752549D01*
X14416353Y-10714453D01*
X14425877Y-10695406D01*
X14435401Y-10685882D01*
X14454448Y-10676358D01*
X14711591Y-10876358D02*
X14597306Y-10876358D01*
X14654448Y-10876358D02*
X14654448Y-10676358D01*
X14635401Y-10704930D01*
X14616353Y-10723977D01*
X14597306Y-10733501D01*
X14902067Y-10876358D02*
X14787782Y-10876358D01*
X14844925Y-10876358D02*
X14844925Y-10676358D01*
X14825877Y-10704930D01*
X14806829Y-10723977D01*
X14787782Y-10733501D01*
X15016353Y-10762072D02*
X14997306Y-10752549D01*
X14987782Y-10743025D01*
X14978258Y-10723977D01*
X14978258Y-10714453D01*
X14987782Y-10695406D01*
X14997306Y-10685882D01*
X15016353Y-10676358D01*
X15054448Y-10676358D01*
X15073496Y-10685882D01*
X15083020Y-10695406D01*
X15092544Y-10714453D01*
X15092544Y-10723977D01*
X15083020Y-10743025D01*
X15073496Y-10752549D01*
X15054448Y-10762072D01*
X15016353Y-10762072D01*
X14997306Y-10771596D01*
X14987782Y-10781120D01*
X14978258Y-10800168D01*
X14978258Y-10838263D01*
X14987782Y-10857311D01*
X14997306Y-10866834D01*
X15016353Y-10876358D01*
X15054448Y-10876358D01*
X15073496Y-10866834D01*
X15083020Y-10857311D01*
X15092544Y-10838263D01*
X15092544Y-10800168D01*
X15083020Y-10781120D01*
X15073496Y-10771596D01*
X15054448Y-10762072D01*
X15168734Y-10676358D02*
X15168734Y-10714453D01*
X15244925Y-10676358D02*
X15244925Y-10714453D01*
X15540163Y-10952549D02*
X15530639Y-10943025D01*
X15511591Y-10914453D01*
X15502067Y-10895406D01*
X15492544Y-10866834D01*
X15483020Y-10819215D01*
X15483020Y-10781120D01*
X15492544Y-10733501D01*
X15502067Y-10704930D01*
X15511591Y-10685882D01*
X15530639Y-10657311D01*
X15540163Y-10647787D01*
X15721115Y-10876358D02*
X15606829Y-10876358D01*
X15663972Y-10876358D02*
X15663972Y-10676358D01*
X15644925Y-10704930D01*
X15625877Y-10723977D01*
X15606829Y-10733501D01*
X15911591Y-10876358D02*
X15797306Y-10876358D01*
X15854448Y-10876358D02*
X15854448Y-10676358D01*
X15835401Y-10704930D01*
X15816353Y-10723977D01*
X15797306Y-10733501D01*
X16083020Y-10743025D02*
X16083020Y-10876358D01*
X16035401Y-10666834D02*
X15987782Y-10809692D01*
X16111591Y-10809692D01*
X16340163Y-10876358D02*
X16340163Y-10676358D01*
X16425877Y-10876358D02*
X16425877Y-10771596D01*
X16416353Y-10752549D01*
X16397306Y-10743025D01*
X16368734Y-10743025D01*
X16349686Y-10752549D01*
X16340163Y-10762072D01*
X16549686Y-10876358D02*
X16530639Y-10866834D01*
X16521115Y-10857311D01*
X16511591Y-10838263D01*
X16511591Y-10781120D01*
X16521115Y-10762072D01*
X16530639Y-10752549D01*
X16549686Y-10743025D01*
X16578258Y-10743025D01*
X16597306Y-10752549D01*
X16606829Y-10762072D01*
X16616353Y-10781120D01*
X16616353Y-10838263D01*
X16606829Y-10857311D01*
X16597306Y-10866834D01*
X16578258Y-10876358D01*
X16549686Y-10876358D01*
X16730639Y-10876358D02*
X16711591Y-10866834D01*
X16702067Y-10847787D01*
X16702067Y-10676358D01*
X16883020Y-10866834D02*
X16863972Y-10876358D01*
X16825877Y-10876358D01*
X16806829Y-10866834D01*
X16797306Y-10847787D01*
X16797306Y-10771596D01*
X16806829Y-10752549D01*
X16825877Y-10743025D01*
X16863972Y-10743025D01*
X16883020Y-10752549D01*
X16892544Y-10771596D01*
X16892544Y-10790644D01*
X16797306Y-10809692D01*
X16968734Y-10866834D02*
X16987782Y-10876358D01*
X17025877Y-10876358D01*
X17044925Y-10866834D01*
X17054448Y-10847787D01*
X17054448Y-10838263D01*
X17044925Y-10819215D01*
X17025877Y-10809692D01*
X16997306Y-10809692D01*
X16978258Y-10800168D01*
X16968734Y-10781120D01*
X16968734Y-10771596D01*
X16978258Y-10752549D01*
X16997306Y-10743025D01*
X17025877Y-10743025D01*
X17044925Y-10752549D01*
X17121115Y-10952549D02*
X17130639Y-10943025D01*
X17149687Y-10914453D01*
X17159210Y-10895406D01*
X17168734Y-10866834D01*
X17178258Y-10819215D01*
X17178258Y-10781120D01*
X17168734Y-10733501D01*
X17159210Y-10704930D01*
X17149687Y-10685882D01*
X17130639Y-10657311D01*
X17121115Y-10647787D01*
D13*
X11968258Y-11049882D02*
G75*
G03*
X11968258Y-11049882I-50000J0D01*
G01*
D11*
X12330639Y-11140358D02*
X12216353Y-11140358D01*
X12273496Y-11140358D02*
X12273496Y-10940358D01*
X12254448Y-10968930D01*
X12235401Y-10987977D01*
X12216353Y-10997501D01*
X12416353Y-11121311D02*
X12425877Y-11130834D01*
X12416353Y-11140358D01*
X12406829Y-11130834D01*
X12416353Y-11121311D01*
X12416353Y-11140358D01*
X12549686Y-10940358D02*
X12568734Y-10940358D01*
X12587782Y-10949882D01*
X12597306Y-10959406D01*
X12606829Y-10978453D01*
X12616353Y-11016549D01*
X12616353Y-11064168D01*
X12606829Y-11102263D01*
X12597306Y-11121311D01*
X12587782Y-11130834D01*
X12568734Y-11140358D01*
X12549686Y-11140358D01*
X12530639Y-11130834D01*
X12521115Y-11121311D01*
X12511591Y-11102263D01*
X12502067Y-11064168D01*
X12502067Y-11016549D01*
X12511591Y-10978453D01*
X12521115Y-10959406D01*
X12530639Y-10949882D01*
X12549686Y-10940358D01*
X12740163Y-10940358D02*
X12759210Y-10940358D01*
X12778258Y-10949882D01*
X12787782Y-10959406D01*
X12797306Y-10978453D01*
X12806829Y-11016549D01*
X12806829Y-11064168D01*
X12797306Y-11102263D01*
X12787782Y-11121311D01*
X12778258Y-11130834D01*
X12759210Y-11140358D01*
X12740163Y-11140358D01*
X12721115Y-11130834D01*
X12711591Y-11121311D01*
X12702067Y-11102263D01*
X12692544Y-11064168D01*
X12692544Y-11016549D01*
X12702067Y-10978453D01*
X12711591Y-10959406D01*
X12721115Y-10949882D01*
X12740163Y-10940358D01*
X12930639Y-10940358D02*
X12949686Y-10940358D01*
X12968734Y-10949882D01*
X12978258Y-10959406D01*
X12987782Y-10978453D01*
X12997306Y-11016549D01*
X12997306Y-11064168D01*
X12987782Y-11102263D01*
X12978258Y-11121311D01*
X12968734Y-11130834D01*
X12949686Y-11140358D01*
X12930639Y-11140358D01*
X12911591Y-11130834D01*
X12902067Y-11121311D01*
X12892544Y-11102263D01*
X12883020Y-11064168D01*
X12883020Y-11016549D01*
X12892544Y-10978453D01*
X12902067Y-10959406D01*
X12911591Y-10949882D01*
X12930639Y-10940358D01*
X13083020Y-11140358D02*
X13083020Y-11007025D01*
X13083020Y-11026072D02*
X13092544Y-11016549D01*
X13111591Y-11007025D01*
X13140163Y-11007025D01*
X13159210Y-11016549D01*
X13168734Y-11035596D01*
X13168734Y-11140358D01*
X13168734Y-11035596D02*
X13178258Y-11016549D01*
X13197306Y-11007025D01*
X13225877Y-11007025D01*
X13244925Y-11016549D01*
X13254448Y-11035596D01*
X13254448Y-11140358D01*
X13349686Y-11140358D02*
X13349686Y-11007025D01*
X13349686Y-11026072D02*
X13359210Y-11016549D01*
X13378258Y-11007025D01*
X13406829Y-11007025D01*
X13425877Y-11016549D01*
X13435401Y-11035596D01*
X13435401Y-11140358D01*
X13435401Y-11035596D02*
X13444925Y-11016549D01*
X13463972Y-11007025D01*
X13492544Y-11007025D01*
X13511591Y-11016549D01*
X13521115Y-11035596D01*
X13521115Y-11140358D01*
X13911591Y-10930834D02*
X13740163Y-11187977D01*
X14168734Y-10940358D02*
X14187782Y-10940358D01*
X14206829Y-10949882D01*
X14216353Y-10959406D01*
X14225877Y-10978453D01*
X14235401Y-11016549D01*
X14235401Y-11064168D01*
X14225877Y-11102263D01*
X14216353Y-11121311D01*
X14206829Y-11130834D01*
X14187782Y-11140358D01*
X14168734Y-11140358D01*
X14149686Y-11130834D01*
X14140163Y-11121311D01*
X14130639Y-11102263D01*
X14121115Y-11064168D01*
X14121115Y-11016549D01*
X14130639Y-10978453D01*
X14140163Y-10959406D01*
X14149686Y-10949882D01*
X14168734Y-10940358D01*
X14321115Y-11121311D02*
X14330639Y-11130834D01*
X14321115Y-11140358D01*
X14311591Y-11130834D01*
X14321115Y-11121311D01*
X14321115Y-11140358D01*
X14454448Y-10940358D02*
X14473496Y-10940358D01*
X14492544Y-10949882D01*
X14502067Y-10959406D01*
X14511591Y-10978453D01*
X14521115Y-11016549D01*
X14521115Y-11064168D01*
X14511591Y-11102263D01*
X14502067Y-11121311D01*
X14492544Y-11130834D01*
X14473496Y-11140358D01*
X14454448Y-11140358D01*
X14435401Y-11130834D01*
X14425877Y-11121311D01*
X14416353Y-11102263D01*
X14406829Y-11064168D01*
X14406829Y-11016549D01*
X14416353Y-10978453D01*
X14425877Y-10959406D01*
X14435401Y-10949882D01*
X14454448Y-10940358D01*
X14587782Y-10940358D02*
X14711591Y-10940358D01*
X14644925Y-11016549D01*
X14673496Y-11016549D01*
X14692544Y-11026072D01*
X14702067Y-11035596D01*
X14711591Y-11054644D01*
X14711591Y-11102263D01*
X14702067Y-11121311D01*
X14692544Y-11130834D01*
X14673496Y-11140358D01*
X14616353Y-11140358D01*
X14597306Y-11130834D01*
X14587782Y-11121311D01*
X14806829Y-11140358D02*
X14844925Y-11140358D01*
X14863972Y-11130834D01*
X14873496Y-11121311D01*
X14892544Y-11092739D01*
X14902067Y-11054644D01*
X14902067Y-10978453D01*
X14892544Y-10959406D01*
X14883020Y-10949882D01*
X14863972Y-10940358D01*
X14825877Y-10940358D01*
X14806829Y-10949882D01*
X14797306Y-10959406D01*
X14787782Y-10978453D01*
X14787782Y-11026072D01*
X14797306Y-11045120D01*
X14806829Y-11054644D01*
X14825877Y-11064168D01*
X14863972Y-11064168D01*
X14883020Y-11054644D01*
X14892544Y-11045120D01*
X14902067Y-11026072D01*
X15073496Y-11007025D02*
X15073496Y-11140358D01*
X15025877Y-10930834D02*
X14978258Y-11073692D01*
X15102067Y-11073692D01*
X15168734Y-10940358D02*
X15168734Y-10978453D01*
X15244925Y-10940358D02*
X15244925Y-10978453D01*
X15540163Y-11216549D02*
X15530639Y-11207025D01*
X15511591Y-11178453D01*
X15502067Y-11159406D01*
X15492544Y-11130834D01*
X15483020Y-11083215D01*
X15483020Y-11045120D01*
X15492544Y-10997501D01*
X15502067Y-10968930D01*
X15511591Y-10949882D01*
X15530639Y-10921311D01*
X15540163Y-10911787D01*
X15644925Y-11026072D02*
X15625877Y-11016549D01*
X15616353Y-11007025D01*
X15606829Y-10987977D01*
X15606829Y-10978453D01*
X15616353Y-10959406D01*
X15625877Y-10949882D01*
X15644925Y-10940358D01*
X15683020Y-10940358D01*
X15702067Y-10949882D01*
X15711591Y-10959406D01*
X15721115Y-10978453D01*
X15721115Y-10987977D01*
X15711591Y-11007025D01*
X15702067Y-11016549D01*
X15683020Y-11026072D01*
X15644925Y-11026072D01*
X15625877Y-11035596D01*
X15616353Y-11045120D01*
X15606829Y-11064168D01*
X15606829Y-11102263D01*
X15616353Y-11121311D01*
X15625877Y-11130834D01*
X15644925Y-11140358D01*
X15683020Y-11140358D01*
X15702067Y-11130834D01*
X15711591Y-11121311D01*
X15721115Y-11102263D01*
X15721115Y-11064168D01*
X15711591Y-11045120D01*
X15702067Y-11035596D01*
X15683020Y-11026072D01*
X15959210Y-11140358D02*
X15959210Y-10940358D01*
X16044925Y-11140358D02*
X16044925Y-11035596D01*
X16035401Y-11016549D01*
X16016353Y-11007025D01*
X15987782Y-11007025D01*
X15968734Y-11016549D01*
X15959210Y-11026072D01*
X16168734Y-11140358D02*
X16149686Y-11130834D01*
X16140163Y-11121311D01*
X16130639Y-11102263D01*
X16130639Y-11045120D01*
X16140163Y-11026072D01*
X16149686Y-11016549D01*
X16168734Y-11007025D01*
X16197306Y-11007025D01*
X16216353Y-11016549D01*
X16225877Y-11026072D01*
X16235401Y-11045120D01*
X16235401Y-11102263D01*
X16225877Y-11121311D01*
X16216353Y-11130834D01*
X16197306Y-11140358D01*
X16168734Y-11140358D01*
X16349686Y-11140358D02*
X16330639Y-11130834D01*
X16321115Y-11111787D01*
X16321115Y-10940358D01*
X16502067Y-11130834D02*
X16483020Y-11140358D01*
X16444925Y-11140358D01*
X16425877Y-11130834D01*
X16416353Y-11111787D01*
X16416353Y-11035596D01*
X16425877Y-11016549D01*
X16444925Y-11007025D01*
X16483020Y-11007025D01*
X16502067Y-11016549D01*
X16511591Y-11035596D01*
X16511591Y-11054644D01*
X16416353Y-11073692D01*
X16587782Y-11130834D02*
X16606829Y-11140358D01*
X16644925Y-11140358D01*
X16663972Y-11130834D01*
X16673496Y-11111787D01*
X16673496Y-11102263D01*
X16663972Y-11083215D01*
X16644925Y-11073692D01*
X16616353Y-11073692D01*
X16597306Y-11064168D01*
X16587782Y-11045120D01*
X16587782Y-11035596D01*
X16597306Y-11016549D01*
X16616353Y-11007025D01*
X16644925Y-11007025D01*
X16663972Y-11016549D01*
X16740163Y-11216549D02*
X16749686Y-11207025D01*
X16768734Y-11178453D01*
X16778258Y-11159406D01*
X16787782Y-11130834D01*
X16797306Y-11083215D01*
X16797306Y-11045120D01*
X16787782Y-10997501D01*
X16778258Y-10968930D01*
X16768734Y-10949882D01*
X16749686Y-10921311D01*
X16740163Y-10911787D01*
M02*
