G04 #@! TF.GenerationSoftware,KiCad,Pcbnew,(6.0.5)*
G04 #@! TF.CreationDate,2023-01-28T11:09:10-05:00*
G04 #@! TF.ProjectId,IMU Breakout,494d5520-4272-4656-916b-6f75742e6b69,rev?*
G04 #@! TF.SameCoordinates,Original*
G04 #@! TF.FileFunction,Copper,L1,Top*
G04 #@! TF.FilePolarity,Positive*
%FSLAX46Y46*%
G04 Gerber Fmt 4.6, Leading zero omitted, Abs format (unit mm)*
G04 Created by KiCad (PCBNEW (6.0.5)) date 2023-01-28 11:09:10*
%MOMM*%
%LPD*%
G01*
G04 APERTURE LIST*
G04 Aperture macros list*
%AMRoundRect*
0 Rectangle with rounded corners*
0 $1 Rounding radius*
0 $2 $3 $4 $5 $6 $7 $8 $9 X,Y pos of 4 corners*
0 Add a 4 corners polygon primitive as box body*
4,1,4,$2,$3,$4,$5,$6,$7,$8,$9,$2,$3,0*
0 Add four circle primitives for the rounded corners*
1,1,$1+$1,$2,$3*
1,1,$1+$1,$4,$5*
1,1,$1+$1,$6,$7*
1,1,$1+$1,$8,$9*
0 Add four rect primitives between the rounded corners*
20,1,$1+$1,$2,$3,$4,$5,0*
20,1,$1+$1,$4,$5,$6,$7,0*
20,1,$1+$1,$6,$7,$8,$9,0*
20,1,$1+$1,$8,$9,$2,$3,0*%
G04 Aperture macros list end*
G04 #@! TA.AperFunction,SMDPad,CuDef*
%ADD10C,1.000000*%
G04 #@! TD*
G04 #@! TA.AperFunction,ComponentPad*
%ADD11R,1.700000X1.700000*%
G04 #@! TD*
G04 #@! TA.AperFunction,ComponentPad*
%ADD12O,1.700000X1.700000*%
G04 #@! TD*
G04 #@! TA.AperFunction,SMDPad,CuDef*
%ADD13C,0.750000*%
G04 #@! TD*
G04 #@! TA.AperFunction,SMDPad,CuDef*
%ADD14RoundRect,0.140000X-0.170000X0.140000X-0.170000X-0.140000X0.170000X-0.140000X0.170000X0.140000X0*%
G04 #@! TD*
G04 #@! TA.AperFunction,SMDPad,CuDef*
%ADD15RoundRect,0.140000X0.170000X-0.140000X0.170000X0.140000X-0.170000X0.140000X-0.170000X-0.140000X0*%
G04 #@! TD*
G04 #@! TA.AperFunction,SMDPad,CuDef*
%ADD16R,1.200000X0.600000*%
G04 #@! TD*
G04 #@! TA.AperFunction,SMDPad,CuDef*
%ADD17R,0.650000X0.700000*%
G04 #@! TD*
G04 #@! TA.AperFunction,SMDPad,CuDef*
%ADD18R,0.300000X0.600000*%
G04 #@! TD*
G04 #@! TA.AperFunction,SMDPad,CuDef*
%ADD19R,0.600000X0.300000*%
G04 #@! TD*
G04 #@! TA.AperFunction,SMDPad,CuDef*
%ADD20RoundRect,0.135000X-0.185000X0.135000X-0.185000X-0.135000X0.185000X-0.135000X0.185000X0.135000X0*%
G04 #@! TD*
G04 #@! TA.AperFunction,SMDPad,CuDef*
%ADD21RoundRect,0.147500X-0.172500X0.147500X-0.172500X-0.147500X0.172500X-0.147500X0.172500X0.147500X0*%
G04 #@! TD*
G04 #@! TA.AperFunction,SMDPad,CuDef*
%ADD22RoundRect,0.140000X0.140000X0.170000X-0.140000X0.170000X-0.140000X-0.170000X0.140000X-0.170000X0*%
G04 #@! TD*
G04 #@! TA.AperFunction,ViaPad*
%ADD23C,0.600000*%
G04 #@! TD*
G04 #@! TA.AperFunction,Conductor*
%ADD24C,0.152400*%
G04 #@! TD*
G04 #@! TA.AperFunction,Conductor*
%ADD25C,0.762000*%
G04 #@! TD*
G04 #@! TA.AperFunction,Conductor*
%ADD26C,0.254000*%
G04 #@! TD*
G04 #@! TA.AperFunction,Conductor*
%ADD27C,0.508000*%
G04 #@! TD*
G04 #@! TA.AperFunction,Conductor*
%ADD28C,0.381000*%
G04 #@! TD*
G04 APERTURE END LIST*
D10*
X121657580Y-93883820D03*
D11*
X142032580Y-81383820D03*
D12*
X139492580Y-81383820D03*
X136952580Y-81383820D03*
X134412580Y-81383820D03*
X131872580Y-81383820D03*
X129332580Y-81383820D03*
X126792580Y-81383820D03*
X124252580Y-81383820D03*
D13*
X142057580Y-99483820D03*
D14*
X133905078Y-94301321D03*
X133905078Y-95261321D03*
X128305078Y-92741321D03*
X128305078Y-93701321D03*
D15*
X127105078Y-89881321D03*
X127105078Y-88921321D03*
D16*
X132855078Y-92751321D03*
X132855078Y-91801321D03*
X132855078Y-90851321D03*
X130355078Y-90851321D03*
X130355078Y-92751321D03*
D17*
X136680078Y-92801321D03*
X135330078Y-92801321D03*
D18*
X124655078Y-93351321D03*
X125155078Y-93351321D03*
X125655078Y-93351321D03*
X126155078Y-93351321D03*
D19*
X126305078Y-92701321D03*
X126305078Y-92201321D03*
X126305078Y-91701321D03*
D18*
X126155078Y-91051321D03*
X125655078Y-91051321D03*
X125155078Y-91051321D03*
X124655078Y-91051321D03*
D19*
X124505078Y-91701321D03*
X124505078Y-92201321D03*
X124505078Y-92701321D03*
D14*
X127305078Y-94901321D03*
X127305078Y-95861321D03*
D20*
X124705078Y-95391321D03*
X124705078Y-96411321D03*
D21*
X122605078Y-95416321D03*
X122605078Y-96386321D03*
D22*
X130365078Y-89001321D03*
X129405078Y-89001321D03*
D13*
X121657580Y-84983820D03*
D23*
X135457580Y-86683820D03*
X135457580Y-85583820D03*
X135457580Y-84483820D03*
X143457580Y-86083820D03*
X143457580Y-87183820D03*
X143457580Y-84983820D03*
X143457580Y-83883820D03*
X120757580Y-88983820D03*
X120757580Y-90083820D03*
X120757580Y-87883820D03*
X120757580Y-86783820D03*
X125557580Y-85683820D03*
X125557580Y-86783820D03*
X125557580Y-84583820D03*
X125557580Y-83483820D03*
X127757580Y-85583820D03*
X127757580Y-86683820D03*
X127757580Y-84483820D03*
X127757580Y-83383820D03*
X130357580Y-85683820D03*
X130357580Y-86783820D03*
X130357580Y-84583820D03*
X130357580Y-83483820D03*
X133057580Y-85483820D03*
X133057580Y-86583820D03*
X133057580Y-84383820D03*
X133057580Y-83283820D03*
X122057580Y-81883820D03*
X120757580Y-81883820D03*
X120757580Y-82983820D03*
X122057580Y-82983820D03*
X122057580Y-79683820D03*
X120757580Y-80783820D03*
X120757580Y-79683820D03*
X122057580Y-80783820D03*
X124957580Y-98383820D03*
X124957580Y-99683820D03*
X126057580Y-99683820D03*
X126057580Y-98383820D03*
X122757580Y-98383820D03*
X123857580Y-99683820D03*
X122757580Y-99683820D03*
X123857580Y-98383820D03*
X142857580Y-92183820D03*
X141557580Y-92183820D03*
X141557580Y-93283820D03*
X142857580Y-93283820D03*
X142857580Y-89983820D03*
X141557580Y-91083820D03*
X141557580Y-89983820D03*
X142857580Y-91083820D03*
X138057582Y-83983809D03*
X140857580Y-86183820D03*
X139557580Y-86183820D03*
X139557580Y-87283820D03*
X138057582Y-87283809D03*
X138057582Y-86183809D03*
X140857580Y-87283820D03*
X140857580Y-83983820D03*
X139557580Y-85083820D03*
X139557580Y-83983820D03*
X138057582Y-85083809D03*
X140857580Y-85083820D03*
X129257582Y-96283809D03*
X132057580Y-98483820D03*
X130757580Y-98483820D03*
X130757580Y-99583820D03*
X129257582Y-99583809D03*
X129257582Y-98483809D03*
X132057580Y-99583820D03*
X132057580Y-96283820D03*
X130757580Y-97383820D03*
X130757580Y-96283820D03*
X129257582Y-97383809D03*
X132057580Y-97383820D03*
X135757582Y-94683809D03*
X138557580Y-96883820D03*
X137257580Y-96883820D03*
X137257580Y-97983820D03*
X135757582Y-97983809D03*
X135757582Y-96883809D03*
X138557580Y-97983820D03*
X138557580Y-94683820D03*
X137257580Y-95783820D03*
X137257580Y-94683820D03*
X135757582Y-95783809D03*
X138557580Y-95783820D03*
X139857582Y-96883809D03*
X142657580Y-96883820D03*
X141357580Y-97983820D03*
X141357580Y-96883820D03*
X139857582Y-97983809D03*
X142657580Y-97983820D03*
X139857582Y-95783809D03*
X142657580Y-95783820D03*
X141357580Y-95783820D03*
X142657580Y-94683820D03*
X141357580Y-94683820D03*
X139857582Y-94683809D03*
X127205078Y-92401321D03*
X128205090Y-89001316D03*
X127205067Y-91701321D03*
X125105078Y-94201321D03*
X127305078Y-96901321D03*
X133905078Y-96201327D03*
X121505078Y-95401321D03*
X134405078Y-91501321D03*
X125805078Y-94201321D03*
X128305078Y-94801321D03*
X125705078Y-90301321D03*
X126705068Y-94001331D03*
X136005075Y-87801318D03*
X123805074Y-90801312D03*
X130705085Y-87701318D03*
D24*
X124365081Y-95391321D02*
X124705078Y-95391321D01*
X121657580Y-93883820D02*
X122857580Y-93883820D01*
X122857580Y-93883820D02*
X124365081Y-95391321D01*
D25*
X142032580Y-87973819D02*
X142032580Y-81383820D01*
X137205078Y-92801321D02*
X142032580Y-87973819D01*
X136680078Y-92801321D02*
X137205078Y-92801321D01*
D26*
X126305069Y-91701310D02*
X127205067Y-91701310D01*
D27*
X132680073Y-91901321D02*
X134005078Y-91901321D01*
D24*
X125155078Y-94151321D02*
X125105078Y-94201321D01*
X125155078Y-93351321D02*
X125155078Y-94151321D01*
X127105078Y-88921321D02*
X128125095Y-88921321D01*
X128125095Y-88921321D02*
X128205090Y-89001316D01*
X129405078Y-89001321D02*
X128205095Y-89001321D01*
X125655078Y-94051321D02*
X125805078Y-94201321D01*
X128205095Y-89001321D02*
X128205090Y-89001316D01*
X125655078Y-93351321D02*
X125655078Y-94051321D01*
D26*
X127305067Y-95861322D02*
X127305067Y-96901325D01*
D28*
X128305090Y-93701332D02*
X128305090Y-94801329D01*
D26*
X127005067Y-92201309D02*
X127205067Y-92401309D01*
D24*
X122590078Y-95401321D02*
X122605078Y-95416321D01*
D27*
X133905079Y-95261323D02*
X133905079Y-96201327D01*
X134005078Y-91901321D02*
X134405078Y-91501321D01*
D24*
X121505078Y-95401321D02*
X122590078Y-95401321D01*
D26*
X126305069Y-92201309D02*
X127005067Y-92201309D01*
D24*
X128305078Y-92741321D02*
X128065078Y-92741321D01*
D26*
X128305090Y-91401333D02*
X127705078Y-90801321D01*
X127105067Y-90101313D02*
X126155082Y-91051324D01*
X126040083Y-94901309D02*
X127305079Y-94901309D01*
X126705068Y-93201333D02*
X126905090Y-93201333D01*
D24*
X127305067Y-93601332D02*
X126905093Y-93201333D01*
X127305067Y-94901329D02*
X127305067Y-93601332D01*
X126462100Y-92701321D02*
X126305078Y-92701321D01*
D26*
X126563700Y-92701321D02*
X126705068Y-92842689D01*
X126705068Y-92842689D02*
X126705068Y-93201333D01*
X125550066Y-95391326D02*
X126040083Y-94901309D01*
X126405078Y-90801321D02*
X126155078Y-91051321D01*
D28*
X130355073Y-92751321D02*
X128315072Y-92751321D01*
D26*
X127605066Y-93201333D02*
X127205067Y-93201333D01*
X128305090Y-92741313D02*
X128305090Y-91401333D01*
X128065085Y-92741313D02*
X127605066Y-93201333D01*
D24*
X128315078Y-92751321D02*
X128305078Y-92741321D01*
D26*
X124705085Y-95391326D02*
X125550066Y-95391326D01*
D24*
X127105078Y-89881321D02*
X127105078Y-90101321D01*
D26*
X126305078Y-92701321D02*
X126563700Y-92701321D01*
X126905090Y-93201333D02*
X127205067Y-93201333D01*
X127705078Y-90801321D02*
X126405078Y-90801321D01*
X130355073Y-89071318D02*
X130355073Y-90851325D01*
D24*
X125655078Y-91051321D02*
X125655078Y-90351321D01*
X125655078Y-90351321D02*
X125705078Y-90301321D01*
X136907580Y-86733820D02*
X136005075Y-87636325D01*
X136005075Y-87636325D02*
X136005075Y-87801318D01*
X126155078Y-93351321D02*
X126155078Y-93451341D01*
X136907580Y-81548820D02*
X136907580Y-86733820D01*
X126155078Y-93451341D02*
X126705068Y-94001331D01*
X121505078Y-88701321D02*
X123490080Y-86716320D01*
X124207580Y-85998820D02*
X124207580Y-81548820D01*
X123490080Y-86716320D02*
X124207580Y-85998820D01*
X123188784Y-93351321D02*
X121505078Y-91667615D01*
X121505078Y-91667615D02*
X121505078Y-88701321D01*
X124655078Y-93351321D02*
X123188784Y-93351321D01*
X122405078Y-88901321D02*
X122405078Y-92101321D01*
X122405078Y-92101321D02*
X123005078Y-92701321D01*
X123005078Y-92701321D02*
X124505078Y-92701321D01*
X124540079Y-88901321D02*
X126747580Y-86693820D01*
X124540079Y-88901321D02*
X122405078Y-88901321D01*
X126747580Y-86693820D02*
X126747580Y-81548820D01*
X123205078Y-91501321D02*
X123205078Y-90301321D01*
X123205078Y-90301321D02*
X124105078Y-89401321D01*
X129287580Y-87253820D02*
X128740079Y-87801321D01*
X126705078Y-87801321D02*
X128640079Y-87801321D01*
X129287580Y-81548820D02*
X129287580Y-87253820D01*
X126405078Y-88101321D02*
X126705078Y-87801321D01*
X126405078Y-88901321D02*
X126405078Y-88101321D01*
X124505078Y-92201321D02*
X123905078Y-92201321D01*
X128740079Y-87801321D02*
X128640079Y-87801321D01*
X124105078Y-89401321D02*
X125905078Y-89401321D01*
X123905078Y-92201321D02*
X123205078Y-91501321D01*
X125905078Y-89401321D02*
X126405078Y-88901321D01*
X130780082Y-87701318D02*
X130705085Y-87701318D01*
X123805074Y-91151317D02*
X124355078Y-91701321D01*
X131827580Y-81548820D02*
X131827580Y-86653820D01*
X123805074Y-90801312D02*
X123805074Y-91151317D01*
X131827580Y-86653820D02*
X130780082Y-87701318D01*
X124355078Y-91701321D02*
X124505078Y-91701321D01*
D27*
X133905090Y-94301309D02*
X133905078Y-94301321D01*
D24*
X135330078Y-91526321D02*
X134655078Y-90851321D01*
D27*
X133905090Y-92801333D02*
X132905081Y-92801333D01*
X135330070Y-92801333D02*
X133905090Y-92801333D01*
X133905090Y-92801333D02*
X133905090Y-94301309D01*
D24*
X132855078Y-90851321D02*
X134655078Y-90851321D01*
X132905078Y-92801321D02*
X132855078Y-92751321D01*
X135330078Y-92801321D02*
X135330078Y-91526321D01*
X122605078Y-96386321D02*
X124680078Y-96386321D01*
X124680078Y-96386321D02*
X124705078Y-96411321D01*
G04 #@! TA.AperFunction,Conductor*
G36*
X144199201Y-78904322D02*
G01*
X144245694Y-78957978D01*
X144257080Y-79010320D01*
X144257080Y-101057320D01*
X144237078Y-101125441D01*
X144183422Y-101171934D01*
X144131080Y-101183320D01*
X120084080Y-101183320D01*
X120015959Y-101163318D01*
X119969466Y-101109662D01*
X119958080Y-101057320D01*
X119958080Y-99473275D01*
X141302405Y-99473275D01*
X141303092Y-99480282D01*
X141303092Y-99480285D01*
X141305891Y-99508830D01*
X141318835Y-99640845D01*
X141371982Y-99800611D01*
X141459204Y-99944632D01*
X141464093Y-99949695D01*
X141464094Y-99949696D01*
X141535405Y-100023540D01*
X141576166Y-100065749D01*
X141582063Y-100069608D01*
X141711157Y-100154086D01*
X141711161Y-100154088D01*
X141717055Y-100157945D01*
X141874869Y-100216635D01*
X141881850Y-100217566D01*
X141881852Y-100217567D01*
X141927392Y-100223643D01*
X142041763Y-100238903D01*
X142048774Y-100238265D01*
X142048778Y-100238265D01*
X142202423Y-100224282D01*
X142209444Y-100223643D01*
X142216146Y-100221465D01*
X142216148Y-100221465D01*
X142362878Y-100173790D01*
X142362881Y-100173789D01*
X142369577Y-100171613D01*
X142514203Y-100085398D01*
X142519297Y-100080547D01*
X142519301Y-100080544D01*
X142631034Y-99974142D01*
X142631035Y-99974140D01*
X142636134Y-99969285D01*
X142652514Y-99944632D01*
X142725416Y-99834905D01*
X142729311Y-99829043D01*
X142789101Y-99671643D01*
X142812535Y-99504908D01*
X142812829Y-99483820D01*
X142794061Y-99316496D01*
X142738688Y-99157488D01*
X142649464Y-99014699D01*
X142641303Y-99006481D01*
X142535785Y-98900223D01*
X142535781Y-98900220D01*
X142530822Y-98895226D01*
X142388659Y-98805007D01*
X142230042Y-98748526D01*
X142223054Y-98747693D01*
X142223051Y-98747692D01*
X142129880Y-98736582D01*
X142062853Y-98728589D01*
X142055850Y-98729325D01*
X142055849Y-98729325D01*
X142010292Y-98734113D01*
X141895401Y-98746189D01*
X141888735Y-98748458D01*
X141888732Y-98748459D01*
X141742678Y-98798180D01*
X141742675Y-98798181D01*
X141736011Y-98800450D01*
X141730016Y-98804138D01*
X141730012Y-98804140D01*
X141598601Y-98884985D01*
X141598599Y-98884987D01*
X141592602Y-98888676D01*
X141472304Y-99006481D01*
X141381095Y-99148010D01*
X141323507Y-99306229D01*
X141302405Y-99473275D01*
X119958080Y-99473275D01*
X119958080Y-95147571D01*
X122046181Y-95147571D01*
X122047543Y-95158110D01*
X122061515Y-95162321D01*
X122332963Y-95162321D01*
X122348202Y-95157846D01*
X122349407Y-95156456D01*
X122351078Y-95148773D01*
X122351078Y-95144206D01*
X122859078Y-95144206D01*
X122863553Y-95159445D01*
X122864943Y-95160650D01*
X122872626Y-95162321D01*
X123149100Y-95162321D01*
X123162336Y-95158435D01*
X123163865Y-95147232D01*
X123159686Y-95134369D01*
X123110947Y-95038715D01*
X123099436Y-95022872D01*
X123023527Y-94946963D01*
X123007684Y-94935452D01*
X122912033Y-94886715D01*
X122893396Y-94880660D01*
X122876972Y-94878058D01*
X122863290Y-94879826D01*
X122859078Y-94893800D01*
X122859078Y-95144206D01*
X122351078Y-95144206D01*
X122351078Y-94893339D01*
X122347192Y-94880104D01*
X122332729Y-94878130D01*
X122316760Y-94880660D01*
X122298123Y-94886715D01*
X122202472Y-94935452D01*
X122186629Y-94946963D01*
X122110720Y-95022872D01*
X122099209Y-95038715D01*
X122050470Y-95134369D01*
X122046181Y-95147571D01*
X119958080Y-95147571D01*
X119958080Y-93876431D01*
X120951974Y-93876431D01*
X120970579Y-94044955D01*
X120981739Y-94075450D01*
X121015808Y-94168547D01*
X121028846Y-94204176D01*
X121033082Y-94210479D01*
X121033082Y-94210480D01*
X121042182Y-94224022D01*
X121123410Y-94344903D01*
X121129022Y-94350010D01*
X121129025Y-94350013D01*
X121243192Y-94453897D01*
X121243196Y-94453900D01*
X121248813Y-94459011D01*
X121255486Y-94462634D01*
X121255490Y-94462637D01*
X121391138Y-94536287D01*
X121391140Y-94536288D01*
X121397815Y-94539912D01*
X121405164Y-94541840D01*
X121554463Y-94581008D01*
X121554465Y-94581008D01*
X121561813Y-94582936D01*
X121648189Y-94584293D01*
X121723741Y-94585480D01*
X121723744Y-94585480D01*
X121731340Y-94585599D01*
X121738745Y-94583903D01*
X121738746Y-94583903D01*
X121829992Y-94563005D01*
X121896609Y-94547748D01*
X122048078Y-94471567D01*
X122177003Y-94361454D01*
X122275941Y-94223767D01*
X122276010Y-94223594D01*
X122324113Y-94175763D01*
X122384186Y-94160520D01*
X122690777Y-94160520D01*
X122758898Y-94180522D01*
X122779872Y-94197425D01*
X124135625Y-95553178D01*
X124136888Y-95554641D01*
X124139094Y-95559154D01*
X124167028Y-95585067D01*
X124195530Y-95624189D01*
X124236351Y-95711730D01*
X124236355Y-95711735D01*
X124241013Y-95721725D01*
X124324674Y-95805386D01*
X124323986Y-95806074D01*
X124361947Y-95853568D01*
X124369255Y-95924188D01*
X124337222Y-95987547D01*
X124327582Y-95995900D01*
X124324674Y-95997256D01*
X124249214Y-96072716D01*
X124186902Y-96106742D01*
X124160119Y-96109621D01*
X123180356Y-96109621D01*
X123112235Y-96089619D01*
X123076898Y-96049970D01*
X123075101Y-96051256D01*
X123069040Y-96042789D01*
X123064450Y-96033441D01*
X123057081Y-96026085D01*
X123051016Y-96017613D01*
X123052760Y-96016365D01*
X123025198Y-95966005D01*
X123030195Y-95895185D01*
X123059198Y-95850008D01*
X123099436Y-95809770D01*
X123110947Y-95793927D01*
X123159686Y-95698273D01*
X123163975Y-95685071D01*
X123162613Y-95674532D01*
X123148641Y-95670321D01*
X122061056Y-95670321D01*
X122047820Y-95674207D01*
X122046291Y-95685410D01*
X122050470Y-95698273D01*
X122099209Y-95793927D01*
X122110720Y-95809770D01*
X122151019Y-95850069D01*
X122185045Y-95912381D01*
X122179980Y-95983196D01*
X122157947Y-96017516D01*
X122158754Y-96018092D01*
X122152706Y-96026572D01*
X122145348Y-96033942D01*
X122094470Y-96138027D01*
X122093058Y-96147706D01*
X122085764Y-96197707D01*
X122084578Y-96205835D01*
X122084578Y-96566807D01*
X122094647Y-96635205D01*
X122145706Y-96739201D01*
X122153075Y-96746557D01*
X122219959Y-96813324D01*
X122227699Y-96821051D01*
X122237055Y-96825624D01*
X122237056Y-96825625D01*
X122268637Y-96841062D01*
X122331784Y-96871929D01*
X122341463Y-96873341D01*
X122395065Y-96881161D01*
X122395071Y-96881161D01*
X122399592Y-96881821D01*
X122810564Y-96881821D01*
X122815114Y-96881151D01*
X122815117Y-96881151D01*
X122838520Y-96877706D01*
X122878962Y-96871752D01*
X122982958Y-96820693D01*
X123064808Y-96738700D01*
X123069380Y-96729347D01*
X123075430Y-96720865D01*
X123077576Y-96722395D01*
X123115137Y-96681275D01*
X123180458Y-96663021D01*
X124124042Y-96663021D01*
X124192163Y-96683023D01*
X124228041Y-96724097D01*
X124230031Y-96722704D01*
X124236353Y-96731732D01*
X124241013Y-96741725D01*
X124324674Y-96825386D01*
X124334666Y-96830046D01*
X124334667Y-96830046D01*
X124414848Y-96867435D01*
X124431905Y-96875389D01*
X124472965Y-96880795D01*
X124475749Y-96881161D01*
X124480762Y-96881821D01*
X124929394Y-96881821D01*
X124934408Y-96881161D01*
X124937191Y-96880795D01*
X124978251Y-96875389D01*
X124995309Y-96867435D01*
X125075489Y-96830046D01*
X125075490Y-96830046D01*
X125085482Y-96825386D01*
X125169143Y-96741725D01*
X125178870Y-96720865D01*
X125215072Y-96643231D01*
X125215072Y-96643230D01*
X125219146Y-96634494D01*
X125225578Y-96585637D01*
X125225578Y-96237005D01*
X125219146Y-96188148D01*
X125200288Y-96147706D01*
X125190565Y-96126855D01*
X126758058Y-96126855D01*
X126760193Y-96133428D01*
X126807852Y-96226963D01*
X126819363Y-96242806D01*
X126893593Y-96317036D01*
X126909436Y-96328547D01*
X127002975Y-96376207D01*
X127021600Y-96382259D01*
X127033186Y-96384094D01*
X127046867Y-96382326D01*
X127050940Y-96368812D01*
X127559078Y-96368812D01*
X127562965Y-96382048D01*
X127577423Y-96384022D01*
X127588551Y-96382259D01*
X127607185Y-96376206D01*
X127700720Y-96328547D01*
X127716563Y-96317036D01*
X127790793Y-96242806D01*
X127802304Y-96226963D01*
X127849963Y-96133428D01*
X127852227Y-96126459D01*
X127851331Y-96119532D01*
X127837359Y-96115321D01*
X127577193Y-96115321D01*
X127561954Y-96119796D01*
X127560749Y-96121186D01*
X127559078Y-96128869D01*
X127559078Y-96368812D01*
X127050940Y-96368812D01*
X127051078Y-96368354D01*
X127051078Y-96133436D01*
X127046603Y-96118197D01*
X127045213Y-96116992D01*
X127037530Y-96115321D01*
X126772338Y-96115321D01*
X126759102Y-96119208D01*
X126758058Y-96126855D01*
X125190565Y-96126855D01*
X125173803Y-96090910D01*
X125173803Y-96090909D01*
X125169143Y-96080917D01*
X125085482Y-95997256D01*
X125086170Y-95996568D01*
X125048209Y-95949074D01*
X125040901Y-95878454D01*
X125072934Y-95815095D01*
X125082574Y-95806742D01*
X125085482Y-95805386D01*
X125135137Y-95755731D01*
X125197449Y-95721705D01*
X125224232Y-95718826D01*
X125530272Y-95718826D01*
X125541255Y-95719306D01*
X125568065Y-95721652D01*
X125568066Y-95721652D01*
X125579050Y-95722613D01*
X125615710Y-95712790D01*
X125626433Y-95710413D01*
X125628756Y-95710003D01*
X125663805Y-95703823D01*
X125673351Y-95698312D01*
X125676719Y-95697086D01*
X125679965Y-95695572D01*
X125690609Y-95692720D01*
X125721701Y-95670949D01*
X125730960Y-95665051D01*
X125754277Y-95651589D01*
X125763826Y-95646076D01*
X125788221Y-95617003D01*
X125795647Y-95608899D01*
X126138834Y-95265713D01*
X126201146Y-95231688D01*
X126227929Y-95228809D01*
X126766200Y-95228809D01*
X126834321Y-95248811D01*
X126880814Y-95302467D01*
X126890918Y-95372741D01*
X126861424Y-95437321D01*
X126855295Y-95443904D01*
X126819363Y-95479836D01*
X126807852Y-95495679D01*
X126760193Y-95589214D01*
X126757929Y-95596183D01*
X126758825Y-95603110D01*
X126772797Y-95607321D01*
X127837818Y-95607321D01*
X127851054Y-95603434D01*
X127852098Y-95595787D01*
X127849963Y-95589214D01*
X127818189Y-95526855D01*
X133358058Y-95526855D01*
X133360193Y-95533428D01*
X133407852Y-95626963D01*
X133419363Y-95642806D01*
X133493593Y-95717036D01*
X133509436Y-95728547D01*
X133602975Y-95776207D01*
X133621600Y-95782259D01*
X133633186Y-95784094D01*
X133646867Y-95782326D01*
X133650940Y-95768812D01*
X134159078Y-95768812D01*
X134162965Y-95782048D01*
X134177423Y-95784022D01*
X134188551Y-95782259D01*
X134207185Y-95776206D01*
X134300720Y-95728547D01*
X134316563Y-95717036D01*
X134390793Y-95642806D01*
X134402304Y-95626963D01*
X134449963Y-95533428D01*
X134452227Y-95526459D01*
X134451331Y-95519532D01*
X134437359Y-95515321D01*
X134177193Y-95515321D01*
X134161954Y-95519796D01*
X134160749Y-95521186D01*
X134159078Y-95528869D01*
X134159078Y-95768812D01*
X133650940Y-95768812D01*
X133651078Y-95768354D01*
X133651078Y-95533436D01*
X133646603Y-95518197D01*
X133645213Y-95516992D01*
X133637530Y-95515321D01*
X133372338Y-95515321D01*
X133359102Y-95519208D01*
X133358058Y-95526855D01*
X127818189Y-95526855D01*
X127802304Y-95495679D01*
X127790793Y-95479836D01*
X127743543Y-95432586D01*
X127709517Y-95370274D01*
X127714582Y-95299459D01*
X127743543Y-95254396D01*
X127758302Y-95239637D01*
X127795135Y-95160650D01*
X127804976Y-95139545D01*
X127804976Y-95139544D01*
X127809050Y-95130808D01*
X127815578Y-95081222D01*
X127815577Y-94721421D01*
X127809050Y-94671834D01*
X127800919Y-94654396D01*
X127762962Y-94572998D01*
X127762961Y-94572997D01*
X127758302Y-94563005D01*
X127673394Y-94478097D01*
X127654516Y-94469294D01*
X127601232Y-94422377D01*
X127581767Y-94355100D01*
X127581767Y-94143571D01*
X127601769Y-94075450D01*
X127655425Y-94028957D01*
X127725699Y-94018853D01*
X127790279Y-94048347D01*
X127809701Y-94069507D01*
X127819366Y-94082809D01*
X127893593Y-94157036D01*
X127909436Y-94168547D01*
X128002975Y-94216207D01*
X128021600Y-94222259D01*
X128033186Y-94224094D01*
X128046867Y-94222326D01*
X128050940Y-94208812D01*
X128559078Y-94208812D01*
X128562965Y-94222048D01*
X128577423Y-94224022D01*
X128588551Y-94222259D01*
X128607185Y-94216206D01*
X128700720Y-94168547D01*
X128716563Y-94157036D01*
X128790793Y-94082806D01*
X128802304Y-94066963D01*
X128849963Y-93973428D01*
X128852227Y-93966459D01*
X128851331Y-93959532D01*
X128837359Y-93955321D01*
X128577193Y-93955321D01*
X128561954Y-93959796D01*
X128560749Y-93961186D01*
X128559078Y-93968869D01*
X128559078Y-94208812D01*
X128050940Y-94208812D01*
X128051078Y-94208354D01*
X128051078Y-93573321D01*
X128071080Y-93505200D01*
X128124736Y-93458707D01*
X128177078Y-93447321D01*
X128837818Y-93447321D01*
X128851054Y-93443434D01*
X128852098Y-93435787D01*
X128849963Y-93429214D01*
X128797804Y-93326847D01*
X128801041Y-93325198D01*
X128783315Y-93275501D01*
X128799403Y-93206351D01*
X128850322Y-93156876D01*
X128909110Y-93142321D01*
X129508206Y-93142321D01*
X129576327Y-93162323D01*
X129597301Y-93179226D01*
X129603635Y-93185560D01*
X129610526Y-93195873D01*
X129676847Y-93240188D01*
X129689016Y-93242609D01*
X129689017Y-93242609D01*
X129729262Y-93250614D01*
X129735330Y-93251821D01*
X130974826Y-93251821D01*
X130980894Y-93250614D01*
X131021139Y-93242609D01*
X131021140Y-93242609D01*
X131033309Y-93240188D01*
X131099630Y-93195873D01*
X131143945Y-93129552D01*
X131155578Y-93071069D01*
X131155578Y-92431573D01*
X131150217Y-92404619D01*
X131146366Y-92385260D01*
X131146366Y-92385259D01*
X131143945Y-92373090D01*
X131099630Y-92306769D01*
X131033309Y-92262454D01*
X131021140Y-92260033D01*
X131021139Y-92260033D01*
X130980894Y-92252028D01*
X130974826Y-92250821D01*
X129735330Y-92250821D01*
X129729262Y-92252028D01*
X129689017Y-92260033D01*
X129689016Y-92260033D01*
X129676847Y-92262454D01*
X129610526Y-92306769D01*
X129603635Y-92317082D01*
X129597301Y-92323416D01*
X129534989Y-92357442D01*
X129508206Y-92360321D01*
X128767808Y-92360321D01*
X128699687Y-92340319D01*
X128678713Y-92323416D01*
X128673394Y-92318097D01*
X128675518Y-92315973D01*
X128641992Y-92274030D01*
X128632590Y-92226272D01*
X128632590Y-91529206D01*
X132001078Y-91529206D01*
X132005553Y-91544445D01*
X132006943Y-91545650D01*
X132014626Y-91547321D01*
X133690962Y-91547321D01*
X133706201Y-91542846D01*
X133707406Y-91541456D01*
X133709077Y-91533773D01*
X133709077Y-91482493D01*
X133707869Y-91470233D01*
X133696763Y-91414390D01*
X133687444Y-91391891D01*
X133654880Y-91343156D01*
X133633665Y-91275404D01*
X133641733Y-91232862D01*
X133643945Y-91229552D01*
X133646366Y-91217382D01*
X133651115Y-91205916D01*
X133655378Y-91207682D01*
X133676666Y-91166747D01*
X133738276Y-91131468D01*
X133767546Y-91128021D01*
X134488274Y-91128021D01*
X134556395Y-91148023D01*
X134577369Y-91164925D01*
X135016473Y-91604028D01*
X135050498Y-91666341D01*
X135053378Y-91693124D01*
X135053378Y-92133880D01*
X135033376Y-92202001D01*
X134979720Y-92248494D01*
X134951959Y-92257459D01*
X134939017Y-92260033D01*
X134939016Y-92260033D01*
X134926847Y-92262454D01*
X134860526Y-92306769D01*
X134857051Y-92311969D01*
X134798481Y-92343953D01*
X134771695Y-92346833D01*
X133971600Y-92346833D01*
X133959759Y-92345478D01*
X133959719Y-92345982D01*
X133950328Y-92345243D01*
X133941152Y-92343116D01*
X133931756Y-92343781D01*
X133931753Y-92343781D01*
X133893100Y-92346518D01*
X133884202Y-92346833D01*
X133818750Y-92346833D01*
X133750629Y-92326831D01*
X133704136Y-92273175D01*
X133695171Y-92196251D01*
X133707871Y-92132404D01*
X133709078Y-92120151D01*
X133709078Y-92073436D01*
X133704603Y-92058197D01*
X133703213Y-92056992D01*
X133695530Y-92055321D01*
X132019194Y-92055321D01*
X132003955Y-92059796D01*
X132002750Y-92061186D01*
X132001079Y-92068869D01*
X132001079Y-92120149D01*
X132002287Y-92132409D01*
X132013393Y-92188252D01*
X132022712Y-92210751D01*
X132055276Y-92259486D01*
X132076491Y-92327238D01*
X132068423Y-92369780D01*
X132066211Y-92373090D01*
X132063790Y-92385259D01*
X132063790Y-92385260D01*
X132059939Y-92404619D01*
X132054578Y-92431573D01*
X132054578Y-93071069D01*
X132066211Y-93129552D01*
X132110526Y-93195873D01*
X132176847Y-93240188D01*
X132189016Y-93242609D01*
X132189017Y-93242609D01*
X132229262Y-93250614D01*
X132235330Y-93251821D01*
X132807389Y-93251821D01*
X132828637Y-93253872D01*
X132833178Y-93255308D01*
X132839849Y-93255833D01*
X133324590Y-93255833D01*
X133392711Y-93275835D01*
X133439204Y-93329491D01*
X133450590Y-93381833D01*
X133450590Y-93937782D01*
X133438785Y-93991031D01*
X133401106Y-94071834D01*
X133394578Y-94121420D01*
X133394579Y-94481221D01*
X133401106Y-94530808D01*
X133405179Y-94539542D01*
X133405179Y-94539543D01*
X133447194Y-94629644D01*
X133451854Y-94639637D01*
X133466613Y-94654396D01*
X133500639Y-94716708D01*
X133495574Y-94787523D01*
X133466613Y-94832586D01*
X133419363Y-94879836D01*
X133407852Y-94895679D01*
X133360193Y-94989214D01*
X133357929Y-94996183D01*
X133358825Y-95003110D01*
X133372797Y-95007321D01*
X134437818Y-95007321D01*
X134451054Y-95003434D01*
X134452098Y-94995787D01*
X134449963Y-94989214D01*
X134402304Y-94895679D01*
X134390793Y-94879836D01*
X134343543Y-94832586D01*
X134309517Y-94770274D01*
X134314582Y-94699459D01*
X134343543Y-94654396D01*
X134358302Y-94639637D01*
X134363923Y-94627584D01*
X134404976Y-94539545D01*
X134404977Y-94539543D01*
X134409050Y-94530808D01*
X134415578Y-94481222D01*
X134415577Y-94121421D01*
X134409050Y-94071834D01*
X134384345Y-94018853D01*
X134371395Y-93991083D01*
X134359590Y-93937833D01*
X134359590Y-93381833D01*
X134379592Y-93313712D01*
X134433248Y-93267219D01*
X134485590Y-93255833D01*
X134771719Y-93255833D01*
X134839840Y-93275835D01*
X134855651Y-93288576D01*
X134860526Y-93295873D01*
X134926847Y-93340188D01*
X134939016Y-93342609D01*
X134939017Y-93342609D01*
X134979262Y-93350614D01*
X134985330Y-93351821D01*
X135674826Y-93351821D01*
X135680894Y-93350614D01*
X135721139Y-93342609D01*
X135721140Y-93342609D01*
X135733309Y-93340188D01*
X135799630Y-93295873D01*
X135843945Y-93229552D01*
X135846631Y-93216052D01*
X135854371Y-93177137D01*
X135855578Y-93171069D01*
X135855578Y-92916057D01*
X135875580Y-92847936D01*
X135927560Y-92802895D01*
X136024812Y-92802895D01*
X136064090Y-92820833D01*
X136102474Y-92880559D01*
X136106500Y-92899611D01*
X136113545Y-92953123D01*
X136116705Y-92960751D01*
X136116705Y-92960752D01*
X136144987Y-93029031D01*
X136154578Y-93077249D01*
X136154578Y-93171069D01*
X136155785Y-93177137D01*
X136163526Y-93216052D01*
X136166211Y-93229552D01*
X136210526Y-93295873D01*
X136276847Y-93340188D01*
X136289016Y-93342609D01*
X136289017Y-93342609D01*
X136329262Y-93350614D01*
X136335330Y-93351821D01*
X136464506Y-93351821D01*
X136512725Y-93361413D01*
X136520643Y-93364693D01*
X136520648Y-93364694D01*
X136528276Y-93367854D01*
X136641962Y-93382821D01*
X137158704Y-93382821D01*
X137175151Y-93383899D01*
X137205078Y-93387839D01*
X137213266Y-93386761D01*
X137235006Y-93383899D01*
X137273813Y-93378790D01*
X137356880Y-93367854D01*
X137395587Y-93351821D01*
X137498337Y-93309261D01*
X137589309Y-93239456D01*
X137589312Y-93239453D01*
X137603461Y-93228596D01*
X137613263Y-93221075D01*
X137619809Y-93216052D01*
X137624832Y-93209506D01*
X137624835Y-93209503D01*
X137638187Y-93192102D01*
X137649055Y-93179710D01*
X142410968Y-88417796D01*
X142423360Y-88406928D01*
X142447311Y-88388550D01*
X142479715Y-88346320D01*
X142540520Y-88267078D01*
X142599113Y-88125621D01*
X142611499Y-88031543D01*
X142614080Y-88011935D01*
X142619098Y-87973819D01*
X142615158Y-87943891D01*
X142614080Y-87927445D01*
X142614080Y-82560320D01*
X142634082Y-82492199D01*
X142687738Y-82445706D01*
X142740080Y-82434320D01*
X142902328Y-82434320D01*
X142908396Y-82433113D01*
X142948641Y-82425108D01*
X142948642Y-82425108D01*
X142960811Y-82422687D01*
X143027132Y-82378372D01*
X143071447Y-82312051D01*
X143078250Y-82277853D01*
X143081873Y-82259636D01*
X143083080Y-82253568D01*
X143083080Y-80514072D01*
X143071447Y-80455589D01*
X143027132Y-80389268D01*
X142960811Y-80344953D01*
X142948642Y-80342532D01*
X142948641Y-80342532D01*
X142908396Y-80334527D01*
X142902328Y-80333320D01*
X141162832Y-80333320D01*
X141156764Y-80334527D01*
X141116519Y-80342532D01*
X141116518Y-80342532D01*
X141104349Y-80344953D01*
X141038028Y-80389268D01*
X140993713Y-80455589D01*
X140982080Y-80514072D01*
X140982080Y-82253568D01*
X140983287Y-82259636D01*
X140986911Y-82277853D01*
X140993713Y-82312051D01*
X141038028Y-82378372D01*
X141104349Y-82422687D01*
X141116518Y-82425108D01*
X141116519Y-82425108D01*
X141156764Y-82433113D01*
X141162832Y-82434320D01*
X141325080Y-82434320D01*
X141393201Y-82454322D01*
X141439694Y-82507978D01*
X141451080Y-82560320D01*
X141451080Y-87680764D01*
X141431078Y-87748885D01*
X141414175Y-87769859D01*
X137001117Y-92182916D01*
X136938805Y-92216942D01*
X136912022Y-92219821D01*
X136641962Y-92219821D01*
X136637876Y-92220359D01*
X136637875Y-92220359D01*
X136536464Y-92233710D01*
X136528276Y-92234788D01*
X136520648Y-92237948D01*
X136520643Y-92237949D01*
X136512725Y-92241229D01*
X136464506Y-92250821D01*
X136335330Y-92250821D01*
X136329262Y-92252028D01*
X136289017Y-92260033D01*
X136289016Y-92260033D01*
X136276847Y-92262454D01*
X136210526Y-92306769D01*
X136166211Y-92373090D01*
X136163790Y-92385259D01*
X136163790Y-92385260D01*
X136159939Y-92404619D01*
X136154578Y-92431573D01*
X136154578Y-92525393D01*
X136144987Y-92573611D01*
X136122074Y-92628929D01*
X136113545Y-92649519D01*
X136112468Y-92657703D01*
X136112467Y-92657705D01*
X136106500Y-92703031D01*
X136077778Y-92767958D01*
X136024812Y-92802895D01*
X135927560Y-92802895D01*
X135929236Y-92801443D01*
X135935724Y-92800510D01*
X135887342Y-92770225D01*
X135857083Y-92705999D01*
X135855578Y-92686585D01*
X135855578Y-92431573D01*
X135850217Y-92404619D01*
X135846366Y-92385260D01*
X135846366Y-92385259D01*
X135843945Y-92373090D01*
X135799630Y-92306769D01*
X135733309Y-92262454D01*
X135721140Y-92260033D01*
X135721139Y-92260033D01*
X135708197Y-92257459D01*
X135645287Y-92224552D01*
X135610155Y-92162857D01*
X135606778Y-92133880D01*
X135606778Y-91574121D01*
X135606919Y-91572194D01*
X135608551Y-91567442D01*
X135606867Y-91522584D01*
X135606778Y-91517858D01*
X135606778Y-91500585D01*
X135605945Y-91496113D01*
X135605774Y-91493475D01*
X135604684Y-91464436D01*
X135600092Y-91453749D01*
X135598463Y-91446519D01*
X135597498Y-91443342D01*
X135594828Y-91436423D01*
X135592698Y-91424984D01*
X135586592Y-91415078D01*
X135581169Y-91406280D01*
X135572660Y-91389900D01*
X135569839Y-91383332D01*
X135563994Y-91369728D01*
X135560300Y-91365230D01*
X135558119Y-91363049D01*
X135556055Y-91360773D01*
X135556337Y-91360517D01*
X135552554Y-91355732D01*
X135552527Y-91355756D01*
X135544714Y-91347139D01*
X135538609Y-91337236D01*
X135519092Y-91322395D01*
X135506264Y-91311194D01*
X134884534Y-90689464D01*
X134883271Y-90688001D01*
X134881065Y-90683488D01*
X134848150Y-90652955D01*
X134844745Y-90649675D01*
X134832536Y-90637466D01*
X134828786Y-90634894D01*
X134826796Y-90633146D01*
X134814024Y-90621298D01*
X134814022Y-90621297D01*
X134805494Y-90613386D01*
X134794689Y-90609075D01*
X134788416Y-90605110D01*
X134785500Y-90603553D01*
X134778715Y-90600546D01*
X134769122Y-90593965D01*
X134757806Y-90591279D01*
X134757805Y-90591279D01*
X134747746Y-90588892D01*
X134730159Y-90583329D01*
X134709754Y-90575189D01*
X134703961Y-90574621D01*
X134700876Y-90574621D01*
X134697809Y-90574471D01*
X134697828Y-90574091D01*
X134691769Y-90573382D01*
X134691767Y-90573419D01*
X134680149Y-90572851D01*
X134668828Y-90570164D01*
X134657299Y-90571733D01*
X134657298Y-90571733D01*
X134648563Y-90572922D01*
X134644911Y-90573419D01*
X134644536Y-90573470D01*
X134627545Y-90574621D01*
X133767546Y-90574621D01*
X133699425Y-90554619D01*
X133652932Y-90500963D01*
X133651516Y-90496560D01*
X133651115Y-90496726D01*
X133646366Y-90485260D01*
X133643945Y-90473090D01*
X133599630Y-90406769D01*
X133533309Y-90362454D01*
X133521140Y-90360033D01*
X133521139Y-90360033D01*
X133480894Y-90352028D01*
X133474826Y-90350821D01*
X132235330Y-90350821D01*
X132229262Y-90352028D01*
X132189017Y-90360033D01*
X132189016Y-90360033D01*
X132176847Y-90362454D01*
X132110526Y-90406769D01*
X132066211Y-90473090D01*
X132063790Y-90485259D01*
X132063790Y-90485260D01*
X132060873Y-90499927D01*
X132054578Y-90531573D01*
X132054578Y-91171069D01*
X132055785Y-91177137D01*
X132061510Y-91205916D01*
X132066211Y-91229552D01*
X132067647Y-91231701D01*
X132074509Y-91295528D01*
X132055276Y-91343156D01*
X132022711Y-91391893D01*
X132013394Y-91414387D01*
X132002285Y-91470236D01*
X132001078Y-91482491D01*
X132001078Y-91529206D01*
X128632590Y-91529206D01*
X128632590Y-91421127D01*
X128633070Y-91410144D01*
X128635416Y-91383332D01*
X128636377Y-91372349D01*
X128626554Y-91335689D01*
X128624177Y-91324966D01*
X128622813Y-91317231D01*
X128617587Y-91287594D01*
X128612076Y-91278048D01*
X128610850Y-91274680D01*
X128609336Y-91271434D01*
X128606484Y-91260790D01*
X128584718Y-91229704D01*
X128578813Y-91220435D01*
X128565353Y-91197121D01*
X128565351Y-91197119D01*
X128559840Y-91187573D01*
X128540171Y-91171069D01*
X129554578Y-91171069D01*
X129555785Y-91177137D01*
X129561510Y-91205916D01*
X129566211Y-91229552D01*
X129573104Y-91239868D01*
X129586227Y-91259508D01*
X129610526Y-91295873D01*
X129620839Y-91302764D01*
X129662172Y-91330382D01*
X129676847Y-91340188D01*
X129689016Y-91342609D01*
X129689017Y-91342609D01*
X129729262Y-91350614D01*
X129735330Y-91351821D01*
X130974826Y-91351821D01*
X130980894Y-91350614D01*
X131021139Y-91342609D01*
X131021140Y-91342609D01*
X131033309Y-91340188D01*
X131047985Y-91330382D01*
X131089317Y-91302764D01*
X131099630Y-91295873D01*
X131123929Y-91259508D01*
X131137052Y-91239868D01*
X131143945Y-91229552D01*
X131148647Y-91205916D01*
X131154371Y-91177137D01*
X131155578Y-91171069D01*
X131155578Y-90531573D01*
X131149283Y-90499927D01*
X131146366Y-90485260D01*
X131146366Y-90485259D01*
X131143945Y-90473090D01*
X131099630Y-90406769D01*
X131033309Y-90362454D01*
X131021140Y-90360033D01*
X131021139Y-90360033D01*
X130980894Y-90352028D01*
X130974826Y-90350821D01*
X130808573Y-90350821D01*
X130740452Y-90330819D01*
X130693959Y-90277163D01*
X130682573Y-90224821D01*
X130682573Y-89527556D01*
X130702575Y-89459435D01*
X130719478Y-89438461D01*
X130788302Y-89369637D01*
X130818900Y-89304021D01*
X130834976Y-89269545D01*
X130834976Y-89269544D01*
X130839050Y-89260808D01*
X130845578Y-89211222D01*
X130845577Y-88791421D01*
X130839050Y-88741834D01*
X130833266Y-88729429D01*
X130792962Y-88642998D01*
X130792961Y-88642997D01*
X130788302Y-88633005D01*
X130703394Y-88548097D01*
X130691124Y-88542375D01*
X130603302Y-88501423D01*
X130603301Y-88501423D01*
X130594565Y-88497349D01*
X130544979Y-88490821D01*
X130365144Y-88490821D01*
X130185178Y-88490822D01*
X130135591Y-88497349D01*
X130126857Y-88501422D01*
X130126856Y-88501422D01*
X130036755Y-88543437D01*
X130026762Y-88548097D01*
X130012003Y-88562856D01*
X129949691Y-88596882D01*
X129878876Y-88591817D01*
X129833813Y-88562856D01*
X129786563Y-88515606D01*
X129770720Y-88504095D01*
X129677185Y-88456436D01*
X129670216Y-88454172D01*
X129663289Y-88455068D01*
X129659078Y-88469040D01*
X129659078Y-89534061D01*
X129662965Y-89547297D01*
X129670612Y-89548341D01*
X129677185Y-89546206D01*
X129770720Y-89498547D01*
X129786563Y-89487036D01*
X129812478Y-89461121D01*
X129874790Y-89427095D01*
X129945605Y-89432160D01*
X130002441Y-89474707D01*
X130027252Y-89541227D01*
X130027573Y-89550216D01*
X130027573Y-90224821D01*
X130007571Y-90292942D01*
X129953915Y-90339435D01*
X129901573Y-90350821D01*
X129735330Y-90350821D01*
X129729262Y-90352028D01*
X129689017Y-90360033D01*
X129689016Y-90360033D01*
X129676847Y-90362454D01*
X129610526Y-90406769D01*
X129566211Y-90473090D01*
X129563790Y-90485259D01*
X129563790Y-90485260D01*
X129560873Y-90499927D01*
X129554578Y-90531573D01*
X129554578Y-91171069D01*
X128540171Y-91171069D01*
X128530772Y-91163182D01*
X128522669Y-91155757D01*
X127950659Y-90583748D01*
X127943232Y-90575643D01*
X127942439Y-90574698D01*
X127918838Y-90546571D01*
X127885973Y-90527596D01*
X127876713Y-90521698D01*
X127845621Y-90499927D01*
X127834977Y-90497075D01*
X127831731Y-90495561D01*
X127828363Y-90494335D01*
X127818817Y-90488824D01*
X127781446Y-90482234D01*
X127770722Y-90479857D01*
X127734062Y-90470034D01*
X127723078Y-90470995D01*
X127723077Y-90470995D01*
X127696267Y-90473341D01*
X127685284Y-90473821D01*
X127608308Y-90473821D01*
X127540187Y-90453819D01*
X127493694Y-90400163D01*
X127483590Y-90329889D01*
X127513084Y-90265309D01*
X127519213Y-90258726D01*
X127558302Y-90219637D01*
X127581369Y-90170171D01*
X127604976Y-90119545D01*
X127604976Y-90119544D01*
X127609050Y-90110808D01*
X127615578Y-90061222D01*
X127615577Y-89701421D01*
X127609050Y-89651834D01*
X127597611Y-89627302D01*
X127562962Y-89552998D01*
X127562961Y-89552997D01*
X127558302Y-89543005D01*
X127543543Y-89528246D01*
X127509517Y-89465934D01*
X127514582Y-89395119D01*
X127543543Y-89350056D01*
X127590793Y-89302806D01*
X127602304Y-89286963D01*
X127609079Y-89273666D01*
X128882377Y-89273666D01*
X128884140Y-89284794D01*
X128890193Y-89303428D01*
X128937852Y-89396963D01*
X128949363Y-89412806D01*
X129023593Y-89487036D01*
X129039436Y-89498547D01*
X129132971Y-89546206D01*
X129139940Y-89548470D01*
X129146867Y-89547574D01*
X129151078Y-89533602D01*
X129151078Y-89273436D01*
X129146603Y-89258197D01*
X129145213Y-89256992D01*
X129137530Y-89255321D01*
X128897587Y-89255321D01*
X128884351Y-89259208D01*
X128882377Y-89273666D01*
X127609079Y-89273666D01*
X127649963Y-89193428D01*
X127652227Y-89186459D01*
X127651331Y-89179532D01*
X127637359Y-89175321D01*
X126977078Y-89175321D01*
X126908957Y-89155319D01*
X126862464Y-89101663D01*
X126851078Y-89049321D01*
X126851078Y-88729429D01*
X128882305Y-88729429D01*
X128884073Y-88743110D01*
X128898045Y-88747321D01*
X129132963Y-88747321D01*
X129148202Y-88742846D01*
X129149407Y-88741456D01*
X129151078Y-88733773D01*
X129151078Y-88468581D01*
X129147191Y-88455345D01*
X129139544Y-88454301D01*
X129132971Y-88456436D01*
X129039436Y-88504095D01*
X129023593Y-88515606D01*
X128949363Y-88589836D01*
X128937852Y-88605679D01*
X128890192Y-88699218D01*
X128884140Y-88717843D01*
X128882305Y-88729429D01*
X126851078Y-88729429D01*
X126851078Y-88649206D01*
X127359078Y-88649206D01*
X127363553Y-88664445D01*
X127364943Y-88665650D01*
X127372626Y-88667321D01*
X127637818Y-88667321D01*
X127651054Y-88663434D01*
X127652098Y-88655787D01*
X127649963Y-88649214D01*
X127602304Y-88555679D01*
X127590793Y-88539836D01*
X127516563Y-88465606D01*
X127500720Y-88454095D01*
X127407181Y-88406435D01*
X127388556Y-88400383D01*
X127376970Y-88398548D01*
X127363289Y-88400316D01*
X127359078Y-88414288D01*
X127359078Y-88649206D01*
X126851078Y-88649206D01*
X126851078Y-88413830D01*
X126847191Y-88400594D01*
X126832733Y-88398620D01*
X126827486Y-88399451D01*
X126757075Y-88390350D01*
X126702762Y-88344627D01*
X126681778Y-88275002D01*
X126681778Y-88268125D01*
X126701780Y-88200004D01*
X126718682Y-88179030D01*
X126782785Y-88114926D01*
X126845097Y-88080901D01*
X126871881Y-88078021D01*
X128692279Y-88078021D01*
X128694206Y-88078162D01*
X128698958Y-88079794D01*
X128710519Y-88079360D01*
X128743815Y-88078110D01*
X128748542Y-88078021D01*
X128765815Y-88078021D01*
X128770287Y-88077188D01*
X128772920Y-88077017D01*
X128801964Y-88075927D01*
X128812653Y-88071335D01*
X128819894Y-88069703D01*
X128823057Y-88068742D01*
X128829981Y-88066071D01*
X128841416Y-88063941D01*
X128851315Y-88057839D01*
X128851321Y-88057837D01*
X128860122Y-88052412D01*
X128876491Y-88043909D01*
X128888503Y-88038748D01*
X128888504Y-88038747D01*
X128896672Y-88035238D01*
X128901170Y-88031543D01*
X128903360Y-88029353D01*
X128905622Y-88027302D01*
X128905878Y-88027584D01*
X128910668Y-88023797D01*
X128910644Y-88023770D01*
X128919261Y-88015957D01*
X128929164Y-88009852D01*
X128944005Y-87990335D01*
X128955206Y-87977507D01*
X129237572Y-87695141D01*
X130199476Y-87695141D01*
X130200640Y-87704043D01*
X130200640Y-87704046D01*
X130206504Y-87748885D01*
X130218065Y-87837297D01*
X130221682Y-87845517D01*
X130264968Y-87943891D01*
X130275805Y-87968521D01*
X130281582Y-87975394D01*
X130281583Y-87975395D01*
X130360857Y-88069703D01*
X130368055Y-88078266D01*
X130375532Y-88083243D01*
X130450659Y-88133252D01*
X130487398Y-88157708D01*
X130624242Y-88200460D01*
X130633214Y-88200624D01*
X130633217Y-88200625D01*
X130698548Y-88201822D01*
X130767584Y-88203088D01*
X130776618Y-88200625D01*
X130897243Y-88167739D01*
X130897245Y-88167738D01*
X130905902Y-88165378D01*
X131028076Y-88090363D01*
X131056853Y-88058571D01*
X131118263Y-87990725D01*
X131124285Y-87984072D01*
X131186795Y-87855051D01*
X131196874Y-87795141D01*
X135499466Y-87795141D01*
X135500630Y-87804043D01*
X135500630Y-87804046D01*
X135507300Y-87855051D01*
X135518055Y-87937297D01*
X135521672Y-87945517D01*
X135562695Y-88038748D01*
X135575795Y-88068521D01*
X135581572Y-88075394D01*
X135581573Y-88075395D01*
X135659196Y-88167739D01*
X135668045Y-88178266D01*
X135787388Y-88257708D01*
X135924232Y-88300460D01*
X135933204Y-88300624D01*
X135933207Y-88300625D01*
X135998538Y-88301822D01*
X136067574Y-88303088D01*
X136076608Y-88300625D01*
X136197233Y-88267739D01*
X136197235Y-88267738D01*
X136205892Y-88265378D01*
X136328066Y-88190363D01*
X136362129Y-88152731D01*
X136418253Y-88090725D01*
X136424275Y-88084072D01*
X136471172Y-87987277D01*
X136482870Y-87963132D01*
X136482870Y-87963131D01*
X136486785Y-87955051D01*
X136510571Y-87813672D01*
X136510722Y-87801318D01*
X136498170Y-87713672D01*
X136491671Y-87668286D01*
X136491670Y-87668283D01*
X136490398Y-87659400D01*
X136486684Y-87651232D01*
X136484163Y-87642610D01*
X136487569Y-87641614D01*
X136479952Y-87588170D01*
X136509525Y-87523625D01*
X136515552Y-87517161D01*
X137069437Y-86963276D01*
X137070900Y-86962013D01*
X137075413Y-86959807D01*
X137105946Y-86926892D01*
X137109226Y-86923487D01*
X137121435Y-86911278D01*
X137124007Y-86907528D01*
X137125755Y-86905538D01*
X137137602Y-86892766D01*
X137145515Y-86884236D01*
X137149827Y-86873428D01*
X137153797Y-86867148D01*
X137155349Y-86864242D01*
X137158355Y-86857459D01*
X137164937Y-86847864D01*
X137170008Y-86826493D01*
X137175575Y-86808890D01*
X137180416Y-86796758D01*
X137180417Y-86796755D01*
X137183712Y-86788496D01*
X137184280Y-86782703D01*
X137184280Y-86779618D01*
X137184430Y-86776551D01*
X137184810Y-86776570D01*
X137185519Y-86770508D01*
X137185482Y-86770506D01*
X137186050Y-86758893D01*
X137188737Y-86747570D01*
X137185431Y-86723277D01*
X137184280Y-86706287D01*
X137184280Y-82505492D01*
X137204282Y-82437371D01*
X137257938Y-82390878D01*
X137276395Y-82384134D01*
X137286840Y-82381218D01*
X137334305Y-82367965D01*
X137518190Y-82275078D01*
X137551985Y-82248675D01*
X137650762Y-82171502D01*
X137680531Y-82148244D01*
X137815144Y-81992292D01*
X137835967Y-81955638D01*
X137853636Y-81924534D01*
X137916903Y-81813164D01*
X137970920Y-81650782D01*
X138421251Y-81650782D01*
X138446023Y-81748322D01*
X138449864Y-81759168D01*
X138529974Y-81932940D01*
X138535725Y-81942901D01*
X138646159Y-82099163D01*
X138653637Y-82107918D01*
X138790694Y-82241432D01*
X138799638Y-82248675D01*
X138958736Y-82354981D01*
X138968846Y-82360471D01*
X139144657Y-82436005D01*
X139155600Y-82439560D01*
X139220912Y-82454339D01*
X139234985Y-82453450D01*
X139238408Y-82444501D01*
X139746580Y-82444501D01*
X139750546Y-82458007D01*
X139759252Y-82459253D01*
X139938077Y-82398550D01*
X139948574Y-82393876D01*
X140115538Y-82300372D01*
X140125010Y-82293862D01*
X140272133Y-82171502D01*
X140280262Y-82163373D01*
X140402622Y-82016250D01*
X140409132Y-82006778D01*
X140502636Y-81839814D01*
X140507310Y-81829317D01*
X140568023Y-81650464D01*
X140566790Y-81641813D01*
X140553222Y-81637820D01*
X139764695Y-81637820D01*
X139749456Y-81642295D01*
X139748251Y-81643685D01*
X139746580Y-81651368D01*
X139746580Y-82444501D01*
X139238408Y-82444501D01*
X139238580Y-82444052D01*
X139238580Y-81655935D01*
X139234105Y-81640696D01*
X139232715Y-81639491D01*
X139225032Y-81637820D01*
X138436074Y-81637820D01*
X138422543Y-81641793D01*
X138421251Y-81650782D01*
X137970920Y-81650782D01*
X137981931Y-81617683D01*
X138007751Y-81413294D01*
X138008163Y-81383820D01*
X137988060Y-81178790D01*
X137972309Y-81126619D01*
X138420523Y-81126619D01*
X138427255Y-81129820D01*
X139220465Y-81129820D01*
X139235704Y-81125345D01*
X139236909Y-81123955D01*
X139238580Y-81116272D01*
X139238580Y-81111705D01*
X139746580Y-81111705D01*
X139751055Y-81126944D01*
X139752445Y-81128149D01*
X139760128Y-81129820D01*
X140549978Y-81129820D01*
X140563509Y-81125847D01*
X140564678Y-81117712D01*
X140529238Y-80992051D01*
X140525113Y-80981304D01*
X140440483Y-80809691D01*
X140434473Y-80799883D01*
X140319980Y-80646559D01*
X140312290Y-80638019D01*
X140171772Y-80508124D01*
X140162647Y-80501123D01*
X140000816Y-80399015D01*
X139990569Y-80393794D01*
X139812840Y-80322888D01*
X139801812Y-80319621D01*
X139764349Y-80312170D01*
X139751474Y-80313322D01*
X139746580Y-80328478D01*
X139746580Y-81111705D01*
X139238580Y-81111705D01*
X139238580Y-80325320D01*
X139234774Y-80312358D01*
X139219859Y-80310422D01*
X139211312Y-80311891D01*
X139200200Y-80314868D01*
X139020675Y-80381099D01*
X139010297Y-80386049D01*
X138845853Y-80483883D01*
X138836541Y-80490649D01*
X138692677Y-80616814D01*
X138684760Y-80625157D01*
X138566298Y-80775425D01*
X138560030Y-80785076D01*
X138470938Y-80954412D01*
X138466533Y-80965047D01*
X138420742Y-81112518D01*
X138420523Y-81126619D01*
X137972309Y-81126619D01*
X137928515Y-80981569D01*
X137831798Y-80799669D01*
X137758439Y-80709722D01*
X137705486Y-80644795D01*
X137705483Y-80644792D01*
X137701591Y-80640020D01*
X137673540Y-80616814D01*
X137547605Y-80512631D01*
X137547601Y-80512629D01*
X137542855Y-80508702D01*
X137361635Y-80410717D01*
X137164834Y-80349797D01*
X137158709Y-80349153D01*
X137158708Y-80349153D01*
X136966078Y-80328907D01*
X136966076Y-80328907D01*
X136959949Y-80328263D01*
X136873109Y-80336166D01*
X136760922Y-80346375D01*
X136760919Y-80346376D01*
X136754783Y-80346934D01*
X136557152Y-80405100D01*
X136374582Y-80500546D01*
X136369781Y-80504406D01*
X136369778Y-80504408D01*
X136218834Y-80625770D01*
X136214027Y-80629635D01*
X136081604Y-80787450D01*
X136078636Y-80792848D01*
X136078633Y-80792853D01*
X135989816Y-80954412D01*
X135982356Y-80967982D01*
X135920064Y-81164352D01*
X135919378Y-81170469D01*
X135919377Y-81170473D01*
X135897787Y-81362957D01*
X135897100Y-81369082D01*
X135914339Y-81574373D01*
X135916038Y-81580298D01*
X135937727Y-81655935D01*
X135971124Y-81772406D01*
X135973939Y-81777883D01*
X135973940Y-81777886D01*
X135994827Y-81818527D01*
X136065292Y-81955638D01*
X136193257Y-82117090D01*
X136197950Y-82121084D01*
X136197951Y-82121085D01*
X136339359Y-82241432D01*
X136350144Y-82250611D01*
X136529978Y-82351117D01*
X136543816Y-82355613D01*
X136602421Y-82395685D01*
X136630058Y-82461081D01*
X136630880Y-82475446D01*
X136630880Y-86567017D01*
X136610878Y-86635138D01*
X136593975Y-86656112D01*
X135978139Y-87271948D01*
X135923669Y-87304002D01*
X135798604Y-87339746D01*
X135677355Y-87416248D01*
X135671413Y-87422976D01*
X135671412Y-87422977D01*
X135650291Y-87446892D01*
X135582452Y-87523706D01*
X135521522Y-87653481D01*
X135499466Y-87795141D01*
X131196874Y-87795141D01*
X131210581Y-87713672D01*
X131210640Y-87708810D01*
X131211076Y-87703955D01*
X131213239Y-87704149D01*
X131231433Y-87644897D01*
X131247488Y-87625225D01*
X131989437Y-86883276D01*
X131990900Y-86882013D01*
X131995413Y-86879807D01*
X132009174Y-86864973D01*
X132025946Y-86846892D01*
X132029226Y-86843487D01*
X132041435Y-86831278D01*
X132044007Y-86827528D01*
X132045755Y-86825538D01*
X132057602Y-86812766D01*
X132065515Y-86804236D01*
X132069827Y-86793428D01*
X132073797Y-86787148D01*
X132075349Y-86784242D01*
X132078355Y-86777459D01*
X132084937Y-86767864D01*
X132090008Y-86746493D01*
X132095575Y-86728890D01*
X132100416Y-86716758D01*
X132100417Y-86716755D01*
X132103712Y-86708496D01*
X132104280Y-86702703D01*
X132104280Y-86699618D01*
X132104430Y-86696551D01*
X132104810Y-86696570D01*
X132105519Y-86690508D01*
X132105482Y-86690506D01*
X132106050Y-86678893D01*
X132108737Y-86667570D01*
X132105431Y-86643277D01*
X132104280Y-86626287D01*
X132104280Y-82505492D01*
X132124282Y-82437371D01*
X132177938Y-82390878D01*
X132196395Y-82384134D01*
X132206840Y-82381218D01*
X132254305Y-82367965D01*
X132438190Y-82275078D01*
X132471985Y-82248675D01*
X132570762Y-82171502D01*
X132600531Y-82148244D01*
X132735144Y-81992292D01*
X132755967Y-81955638D01*
X132773636Y-81924534D01*
X132836903Y-81813164D01*
X132901931Y-81617683D01*
X132927751Y-81413294D01*
X132928163Y-81383820D01*
X132926718Y-81369082D01*
X133357100Y-81369082D01*
X133374339Y-81574373D01*
X133376038Y-81580298D01*
X133397727Y-81655935D01*
X133431124Y-81772406D01*
X133433939Y-81777883D01*
X133433940Y-81777886D01*
X133454827Y-81818527D01*
X133525292Y-81955638D01*
X133653257Y-82117090D01*
X133657950Y-82121084D01*
X133657951Y-82121085D01*
X133799359Y-82241432D01*
X133810144Y-82250611D01*
X133989978Y-82351117D01*
X134073860Y-82378372D01*
X134180051Y-82412876D01*
X134180055Y-82412877D01*
X134185909Y-82414779D01*
X134390474Y-82439171D01*
X134396609Y-82438699D01*
X134396611Y-82438699D01*
X134469205Y-82433113D01*
X134595880Y-82423366D01*
X134601810Y-82421710D01*
X134601812Y-82421710D01*
X134757031Y-82378372D01*
X134794305Y-82367965D01*
X134799794Y-82365192D01*
X134799800Y-82365190D01*
X134972696Y-82277853D01*
X134978190Y-82275078D01*
X135011985Y-82248675D01*
X135110762Y-82171502D01*
X135140531Y-82148244D01*
X135275144Y-81992292D01*
X135295967Y-81955638D01*
X135313636Y-81924534D01*
X135376903Y-81813164D01*
X135441931Y-81617683D01*
X135467751Y-81413294D01*
X135468163Y-81383820D01*
X135448060Y-81178790D01*
X135388515Y-80981569D01*
X135291798Y-80799669D01*
X135218439Y-80709722D01*
X135165486Y-80644795D01*
X135165483Y-80644792D01*
X135161591Y-80640020D01*
X135133540Y-80616814D01*
X135007605Y-80512631D01*
X135007601Y-80512629D01*
X135002855Y-80508702D01*
X134821635Y-80410717D01*
X134624834Y-80349797D01*
X134618709Y-80349153D01*
X134618708Y-80349153D01*
X134426078Y-80328907D01*
X134426076Y-80328907D01*
X134419949Y-80328263D01*
X134333109Y-80336166D01*
X134220922Y-80346375D01*
X134220919Y-80346376D01*
X134214783Y-80346934D01*
X134017152Y-80405100D01*
X133834582Y-80500546D01*
X133829781Y-80504406D01*
X133829778Y-80504408D01*
X133678834Y-80625770D01*
X133674027Y-80629635D01*
X133541604Y-80787450D01*
X133538636Y-80792848D01*
X133538633Y-80792853D01*
X133449816Y-80954412D01*
X133442356Y-80967982D01*
X133380064Y-81164352D01*
X133379378Y-81170469D01*
X133379377Y-81170473D01*
X133357787Y-81362957D01*
X133357100Y-81369082D01*
X132926718Y-81369082D01*
X132908060Y-81178790D01*
X132848515Y-80981569D01*
X132751798Y-80799669D01*
X132678439Y-80709722D01*
X132625486Y-80644795D01*
X132625483Y-80644792D01*
X132621591Y-80640020D01*
X132593540Y-80616814D01*
X132467605Y-80512631D01*
X132467601Y-80512629D01*
X132462855Y-80508702D01*
X132281635Y-80410717D01*
X132084834Y-80349797D01*
X132078709Y-80349153D01*
X132078708Y-80349153D01*
X131886078Y-80328907D01*
X131886076Y-80328907D01*
X131879949Y-80328263D01*
X131793109Y-80336166D01*
X131680922Y-80346375D01*
X131680919Y-80346376D01*
X131674783Y-80346934D01*
X131477152Y-80405100D01*
X131294582Y-80500546D01*
X131289781Y-80504406D01*
X131289778Y-80504408D01*
X131138834Y-80625770D01*
X131134027Y-80629635D01*
X131001604Y-80787450D01*
X130998636Y-80792848D01*
X130998633Y-80792853D01*
X130909816Y-80954412D01*
X130902356Y-80967982D01*
X130840064Y-81164352D01*
X130839378Y-81170469D01*
X130839377Y-81170473D01*
X130817787Y-81362957D01*
X130817100Y-81369082D01*
X130834339Y-81574373D01*
X130836038Y-81580298D01*
X130857727Y-81655935D01*
X130891124Y-81772406D01*
X130893939Y-81777883D01*
X130893940Y-81777886D01*
X130914827Y-81818527D01*
X130985292Y-81955638D01*
X131113257Y-82117090D01*
X131117950Y-82121084D01*
X131117951Y-82121085D01*
X131259359Y-82241432D01*
X131270144Y-82250611D01*
X131449978Y-82351117D01*
X131463816Y-82355613D01*
X131522421Y-82395685D01*
X131550058Y-82461081D01*
X131550880Y-82475446D01*
X131550880Y-86487017D01*
X131530878Y-86555138D01*
X131513975Y-86576112D01*
X130916924Y-87173163D01*
X130854612Y-87207189D01*
X130797319Y-87204998D01*
X130797300Y-87205124D01*
X130796160Y-87204954D01*
X130791725Y-87204784D01*
X130788428Y-87203798D01*
X130788427Y-87203798D01*
X130779824Y-87201225D01*
X130770848Y-87201170D01*
X130770847Y-87201170D01*
X130710640Y-87200802D01*
X130636461Y-87200349D01*
X130498614Y-87239746D01*
X130377365Y-87316248D01*
X130371423Y-87322976D01*
X130371422Y-87322977D01*
X130341775Y-87356546D01*
X130282462Y-87423706D01*
X130221532Y-87553481D01*
X130218789Y-87571099D01*
X130203872Y-87666909D01*
X130199476Y-87695141D01*
X129237572Y-87695141D01*
X129449437Y-87483276D01*
X129450900Y-87482013D01*
X129455413Y-87479807D01*
X129485946Y-87446892D01*
X129489226Y-87443487D01*
X129501434Y-87431279D01*
X129504006Y-87427529D01*
X129505754Y-87425539D01*
X129517601Y-87412768D01*
X129517602Y-87412766D01*
X129525515Y-87404236D01*
X129529826Y-87393430D01*
X129533791Y-87387159D01*
X129535353Y-87384234D01*
X129538356Y-87377457D01*
X129544936Y-87367865D01*
X129550008Y-87346492D01*
X129555573Y-87328896D01*
X129563712Y-87308496D01*
X129564280Y-87302703D01*
X129564280Y-87299617D01*
X129564430Y-87296551D01*
X129564810Y-87296570D01*
X129565519Y-87290512D01*
X129565482Y-87290510D01*
X129566050Y-87278892D01*
X129568737Y-87267571D01*
X129565431Y-87243280D01*
X129564280Y-87226288D01*
X129564280Y-82505492D01*
X129584282Y-82437371D01*
X129637938Y-82390878D01*
X129656395Y-82384134D01*
X129666840Y-82381218D01*
X129714305Y-82367965D01*
X129898190Y-82275078D01*
X129931985Y-82248675D01*
X130030762Y-82171502D01*
X130060531Y-82148244D01*
X130195144Y-81992292D01*
X130215967Y-81955638D01*
X130233636Y-81924534D01*
X130296903Y-81813164D01*
X130361931Y-81617683D01*
X130387751Y-81413294D01*
X130388163Y-81383820D01*
X130368060Y-81178790D01*
X130308515Y-80981569D01*
X130211798Y-80799669D01*
X130138439Y-80709722D01*
X130085486Y-80644795D01*
X130085483Y-80644792D01*
X130081591Y-80640020D01*
X130053540Y-80616814D01*
X129927605Y-80512631D01*
X129927601Y-80512629D01*
X129922855Y-80508702D01*
X129741635Y-80410717D01*
X129544834Y-80349797D01*
X129538709Y-80349153D01*
X129538708Y-80349153D01*
X129346078Y-80328907D01*
X129346076Y-80328907D01*
X129339949Y-80328263D01*
X129253109Y-80336166D01*
X129140922Y-80346375D01*
X129140919Y-80346376D01*
X129134783Y-80346934D01*
X128937152Y-80405100D01*
X128754582Y-80500546D01*
X128749781Y-80504406D01*
X128749778Y-80504408D01*
X128598834Y-80625770D01*
X128594027Y-80629635D01*
X128461604Y-80787450D01*
X128458636Y-80792848D01*
X128458633Y-80792853D01*
X128369816Y-80954412D01*
X128362356Y-80967982D01*
X128300064Y-81164352D01*
X128299378Y-81170469D01*
X128299377Y-81170473D01*
X128277787Y-81362957D01*
X128277100Y-81369082D01*
X128294339Y-81574373D01*
X128296038Y-81580298D01*
X128317727Y-81655935D01*
X128351124Y-81772406D01*
X128353939Y-81777883D01*
X128353940Y-81777886D01*
X128374827Y-81818527D01*
X128445292Y-81955638D01*
X128573257Y-82117090D01*
X128577950Y-82121084D01*
X128577951Y-82121085D01*
X128719359Y-82241432D01*
X128730144Y-82250611D01*
X128909978Y-82351117D01*
X128923816Y-82355613D01*
X128982421Y-82395685D01*
X129010058Y-82461081D01*
X129010880Y-82475446D01*
X129010880Y-87087017D01*
X128990878Y-87155138D01*
X128973975Y-87176112D01*
X128662371Y-87487716D01*
X128600059Y-87521742D01*
X128573276Y-87524621D01*
X126752878Y-87524621D01*
X126750951Y-87524480D01*
X126746199Y-87522848D01*
X126734638Y-87523282D01*
X126701342Y-87524532D01*
X126696615Y-87524621D01*
X126679342Y-87524621D01*
X126674870Y-87525454D01*
X126672237Y-87525625D01*
X126643193Y-87526715D01*
X126632504Y-87531308D01*
X126629546Y-87531974D01*
X126558695Y-87527436D01*
X126501544Y-87485314D01*
X126476238Y-87418980D01*
X126490813Y-87349496D01*
X126512752Y-87319961D01*
X126909437Y-86923276D01*
X126910900Y-86922013D01*
X126915413Y-86919807D01*
X126945946Y-86886892D01*
X126949226Y-86883487D01*
X126961435Y-86871278D01*
X126964007Y-86867528D01*
X126965755Y-86865538D01*
X126977602Y-86852766D01*
X126985515Y-86844236D01*
X126989827Y-86833428D01*
X126993797Y-86827148D01*
X126995349Y-86824242D01*
X126998355Y-86817459D01*
X127004937Y-86807864D01*
X127010008Y-86786493D01*
X127015575Y-86768890D01*
X127020416Y-86756758D01*
X127020417Y-86756755D01*
X127023712Y-86748496D01*
X127024280Y-86742703D01*
X127024280Y-86739618D01*
X127024430Y-86736551D01*
X127024810Y-86736570D01*
X127025519Y-86730508D01*
X127025482Y-86730506D01*
X127026050Y-86718893D01*
X127028737Y-86707570D01*
X127025431Y-86683277D01*
X127024280Y-86666287D01*
X127024280Y-82505492D01*
X127044282Y-82437371D01*
X127097938Y-82390878D01*
X127116395Y-82384134D01*
X127126840Y-82381218D01*
X127174305Y-82367965D01*
X127358190Y-82275078D01*
X127391985Y-82248675D01*
X127490762Y-82171502D01*
X127520531Y-82148244D01*
X127655144Y-81992292D01*
X127675967Y-81955638D01*
X127693636Y-81924534D01*
X127756903Y-81813164D01*
X127821931Y-81617683D01*
X127847751Y-81413294D01*
X127848163Y-81383820D01*
X127828060Y-81178790D01*
X127768515Y-80981569D01*
X127671798Y-80799669D01*
X127598439Y-80709722D01*
X127545486Y-80644795D01*
X127545483Y-80644792D01*
X127541591Y-80640020D01*
X127513540Y-80616814D01*
X127387605Y-80512631D01*
X127387601Y-80512629D01*
X127382855Y-80508702D01*
X127201635Y-80410717D01*
X127004834Y-80349797D01*
X126998709Y-80349153D01*
X126998708Y-80349153D01*
X126806078Y-80328907D01*
X126806076Y-80328907D01*
X126799949Y-80328263D01*
X126713109Y-80336166D01*
X126600922Y-80346375D01*
X126600919Y-80346376D01*
X126594783Y-80346934D01*
X126397152Y-80405100D01*
X126214582Y-80500546D01*
X126209781Y-80504406D01*
X126209778Y-80504408D01*
X126058834Y-80625770D01*
X126054027Y-80629635D01*
X125921604Y-80787450D01*
X125918636Y-80792848D01*
X125918633Y-80792853D01*
X125829816Y-80954412D01*
X125822356Y-80967982D01*
X125760064Y-81164352D01*
X125759378Y-81170469D01*
X125759377Y-81170473D01*
X125737787Y-81362957D01*
X125737100Y-81369082D01*
X125754339Y-81574373D01*
X125756038Y-81580298D01*
X125777727Y-81655935D01*
X125811124Y-81772406D01*
X125813939Y-81777883D01*
X125813940Y-81777886D01*
X125834827Y-81818527D01*
X125905292Y-81955638D01*
X126033257Y-82117090D01*
X126037950Y-82121084D01*
X126037951Y-82121085D01*
X126179359Y-82241432D01*
X126190144Y-82250611D01*
X126369978Y-82351117D01*
X126383816Y-82355613D01*
X126442421Y-82395685D01*
X126470058Y-82461081D01*
X126470880Y-82475446D01*
X126470880Y-86527017D01*
X126450878Y-86595138D01*
X126433975Y-86616112D01*
X124462371Y-88587716D01*
X124400059Y-88621742D01*
X124373276Y-88624621D01*
X122452070Y-88624621D01*
X122442916Y-88624173D01*
X122432547Y-88621171D01*
X122420956Y-88622175D01*
X122398142Y-88624151D01*
X122387269Y-88624621D01*
X122379342Y-88624621D01*
X122373642Y-88625683D01*
X122373478Y-88625698D01*
X122361570Y-88627319D01*
X122341445Y-88629062D01*
X122329852Y-88630066D01*
X122319397Y-88635177D01*
X122317958Y-88635576D01*
X122317242Y-88635742D01*
X122316574Y-88636033D01*
X122315180Y-88636571D01*
X122303741Y-88638701D01*
X122293993Y-88644710D01*
X122223356Y-88650559D01*
X122160666Y-88617236D01*
X122125944Y-88555309D01*
X122130214Y-88484441D01*
X122159661Y-88438051D01*
X123651167Y-86946545D01*
X123651171Y-86946542D01*
X124369437Y-86228276D01*
X124370900Y-86227013D01*
X124375413Y-86224807D01*
X124405946Y-86191892D01*
X124409226Y-86188487D01*
X124421434Y-86176279D01*
X124424006Y-86172529D01*
X124425754Y-86170539D01*
X124437603Y-86157766D01*
X124437605Y-86157764D01*
X124445515Y-86149236D01*
X124449826Y-86138431D01*
X124453791Y-86132158D01*
X124455350Y-86129238D01*
X124458355Y-86122456D01*
X124464936Y-86112864D01*
X124470007Y-86091496D01*
X124475572Y-86073900D01*
X124480417Y-86061756D01*
X124480418Y-86061753D01*
X124483712Y-86053496D01*
X124484280Y-86047703D01*
X124484280Y-86044620D01*
X124484430Y-86041551D01*
X124484810Y-86041570D01*
X124485519Y-86035512D01*
X124485482Y-86035510D01*
X124486050Y-86023892D01*
X124488737Y-86012571D01*
X124485431Y-85988278D01*
X124484280Y-85971288D01*
X124484280Y-82505492D01*
X124504282Y-82437371D01*
X124557938Y-82390878D01*
X124576395Y-82384134D01*
X124586840Y-82381218D01*
X124634305Y-82367965D01*
X124818190Y-82275078D01*
X124851985Y-82248675D01*
X124950762Y-82171502D01*
X124980531Y-82148244D01*
X125115144Y-81992292D01*
X125135967Y-81955638D01*
X125153636Y-81924534D01*
X125216903Y-81813164D01*
X125281931Y-81617683D01*
X125307751Y-81413294D01*
X125308163Y-81383820D01*
X125288060Y-81178790D01*
X125228515Y-80981569D01*
X125131798Y-80799669D01*
X125058439Y-80709722D01*
X125005486Y-80644795D01*
X125005483Y-80644792D01*
X125001591Y-80640020D01*
X124973540Y-80616814D01*
X124847605Y-80512631D01*
X124847601Y-80512629D01*
X124842855Y-80508702D01*
X124661635Y-80410717D01*
X124464834Y-80349797D01*
X124458709Y-80349153D01*
X124458708Y-80349153D01*
X124266078Y-80328907D01*
X124266076Y-80328907D01*
X124259949Y-80328263D01*
X124173109Y-80336166D01*
X124060922Y-80346375D01*
X124060919Y-80346376D01*
X124054783Y-80346934D01*
X123857152Y-80405100D01*
X123674582Y-80500546D01*
X123669781Y-80504406D01*
X123669778Y-80504408D01*
X123518834Y-80625770D01*
X123514027Y-80629635D01*
X123381604Y-80787450D01*
X123378636Y-80792848D01*
X123378633Y-80792853D01*
X123289816Y-80954412D01*
X123282356Y-80967982D01*
X123220064Y-81164352D01*
X123219378Y-81170469D01*
X123219377Y-81170473D01*
X123197787Y-81362957D01*
X123197100Y-81369082D01*
X123214339Y-81574373D01*
X123216038Y-81580298D01*
X123237727Y-81655935D01*
X123271124Y-81772406D01*
X123273939Y-81777883D01*
X123273940Y-81777886D01*
X123294827Y-81818527D01*
X123365292Y-81955638D01*
X123493257Y-82117090D01*
X123497950Y-82121084D01*
X123497951Y-82121085D01*
X123639359Y-82241432D01*
X123650144Y-82250611D01*
X123829978Y-82351117D01*
X123843816Y-82355613D01*
X123902421Y-82395685D01*
X123930058Y-82461081D01*
X123930880Y-82475446D01*
X123930880Y-85832017D01*
X123910878Y-85900138D01*
X123893975Y-85921112D01*
X123328989Y-86486098D01*
X121343221Y-88471865D01*
X121341758Y-88473128D01*
X121337245Y-88475334D01*
X121329374Y-88483819D01*
X121306712Y-88508249D01*
X121303432Y-88511654D01*
X121291223Y-88523863D01*
X121288651Y-88527613D01*
X121286903Y-88529603D01*
X121275055Y-88542375D01*
X121275054Y-88542377D01*
X121267143Y-88550905D01*
X121262832Y-88561710D01*
X121258867Y-88567983D01*
X121257310Y-88570899D01*
X121254303Y-88577684D01*
X121247722Y-88587277D01*
X121245036Y-88598593D01*
X121245036Y-88598594D01*
X121242649Y-88608653D01*
X121237086Y-88626240D01*
X121228946Y-88646645D01*
X121228378Y-88652438D01*
X121228378Y-88655523D01*
X121228228Y-88658590D01*
X121227848Y-88658571D01*
X121227139Y-88664630D01*
X121227176Y-88664632D01*
X121226608Y-88676250D01*
X121223921Y-88687571D01*
X121225490Y-88699100D01*
X121225490Y-88699101D01*
X121227227Y-88711863D01*
X121228378Y-88728854D01*
X121228378Y-91619815D01*
X121228237Y-91621742D01*
X121226605Y-91626494D01*
X121227039Y-91638055D01*
X121228289Y-91671351D01*
X121228378Y-91676078D01*
X121228378Y-91693351D01*
X121229211Y-91697823D01*
X121229382Y-91700456D01*
X121230472Y-91729500D01*
X121235064Y-91740189D01*
X121236696Y-91747430D01*
X121237657Y-91750593D01*
X121240328Y-91757517D01*
X121242458Y-91768952D01*
X121248560Y-91778851D01*
X121248562Y-91778857D01*
X121253987Y-91787658D01*
X121262490Y-91804027D01*
X121271161Y-91824208D01*
X121274856Y-91828706D01*
X121277046Y-91830896D01*
X121279097Y-91833158D01*
X121278815Y-91833414D01*
X121282602Y-91838204D01*
X121282629Y-91838180D01*
X121290442Y-91846797D01*
X121296547Y-91856700D01*
X121314236Y-91870151D01*
X121316064Y-91871541D01*
X121328892Y-91882742D01*
X122838175Y-93392025D01*
X122872201Y-93454337D01*
X122867136Y-93525152D01*
X122824589Y-93581988D01*
X122758069Y-93606799D01*
X122749080Y-93607120D01*
X122383734Y-93607120D01*
X122315613Y-93587118D01*
X122279894Y-93552487D01*
X122191194Y-93423428D01*
X122191193Y-93423427D01*
X122186892Y-93417169D01*
X122175094Y-93406657D01*
X122065972Y-93309432D01*
X122065968Y-93309430D01*
X122060301Y-93304380D01*
X121910461Y-93225044D01*
X121746021Y-93183739D01*
X121738423Y-93183699D01*
X121738421Y-93183699D01*
X121661248Y-93183295D01*
X121576475Y-93182851D01*
X121569088Y-93184625D01*
X121569084Y-93184625D01*
X121441347Y-93215293D01*
X121411612Y-93222432D01*
X121404868Y-93225913D01*
X121404865Y-93225914D01*
X121289304Y-93285560D01*
X121260949Y-93300195D01*
X121255227Y-93305187D01*
X121255225Y-93305188D01*
X121215104Y-93340188D01*
X121133184Y-93411651D01*
X121128817Y-93417865D01*
X121048166Y-93532620D01*
X121035693Y-93550367D01*
X120974104Y-93708333D01*
X120973112Y-93715866D01*
X120973112Y-93715867D01*
X120955214Y-93851821D01*
X120951974Y-93876431D01*
X119958080Y-93876431D01*
X119958080Y-84973275D01*
X120902405Y-84973275D01*
X120903092Y-84980282D01*
X120903092Y-84980285D01*
X120905891Y-85008830D01*
X120918835Y-85140845D01*
X120971982Y-85300611D01*
X121059204Y-85444632D01*
X121064093Y-85449695D01*
X121064094Y-85449696D01*
X121135405Y-85523540D01*
X121176166Y-85565749D01*
X121182063Y-85569608D01*
X121311157Y-85654086D01*
X121311161Y-85654088D01*
X121317055Y-85657945D01*
X121474869Y-85716635D01*
X121481850Y-85717566D01*
X121481852Y-85717567D01*
X121527392Y-85723643D01*
X121641763Y-85738903D01*
X121648774Y-85738265D01*
X121648778Y-85738265D01*
X121802423Y-85724282D01*
X121809444Y-85723643D01*
X121816146Y-85721465D01*
X121816148Y-85721465D01*
X121962878Y-85673790D01*
X121962881Y-85673789D01*
X121969577Y-85671613D01*
X122114203Y-85585398D01*
X122119297Y-85580547D01*
X122119301Y-85580544D01*
X122231034Y-85474142D01*
X122231035Y-85474140D01*
X122236134Y-85469285D01*
X122252514Y-85444632D01*
X122325416Y-85334905D01*
X122329311Y-85329043D01*
X122389101Y-85171643D01*
X122412535Y-85004908D01*
X122412829Y-84983820D01*
X122394061Y-84816496D01*
X122338688Y-84657488D01*
X122249464Y-84514699D01*
X122241303Y-84506481D01*
X122135785Y-84400223D01*
X122135781Y-84400220D01*
X122130822Y-84395226D01*
X121988659Y-84305007D01*
X121830042Y-84248526D01*
X121823054Y-84247693D01*
X121823051Y-84247692D01*
X121729880Y-84236582D01*
X121662853Y-84228589D01*
X121655850Y-84229325D01*
X121655849Y-84229325D01*
X121610292Y-84234113D01*
X121495401Y-84246189D01*
X121488735Y-84248458D01*
X121488732Y-84248459D01*
X121342678Y-84298180D01*
X121342675Y-84298181D01*
X121336011Y-84300450D01*
X121330016Y-84304138D01*
X121330012Y-84304140D01*
X121198601Y-84384985D01*
X121198599Y-84384987D01*
X121192602Y-84388676D01*
X121072304Y-84506481D01*
X120981095Y-84648010D01*
X120923507Y-84806229D01*
X120902405Y-84973275D01*
X119958080Y-84973275D01*
X119958080Y-79010320D01*
X119978082Y-78942199D01*
X120031738Y-78895706D01*
X120084080Y-78884320D01*
X144131080Y-78884320D01*
X144199201Y-78904322D01*
G37*
G04 #@! TD.AperFunction*
G04 #@! TA.AperFunction,Conductor*
G36*
X127585354Y-91148823D02*
G01*
X127606329Y-91165726D01*
X127940686Y-91500084D01*
X127974711Y-91562396D01*
X127977590Y-91589179D01*
X127977590Y-92226255D01*
X127957588Y-92294376D01*
X127935756Y-92317091D01*
X127936762Y-92318097D01*
X127851854Y-92403005D01*
X127847195Y-92412997D01*
X127847194Y-92412998D01*
X127809994Y-92492773D01*
X127801106Y-92511834D01*
X127799848Y-92521393D01*
X127799833Y-92521443D01*
X127767962Y-92575281D01*
X127506316Y-92836928D01*
X127444003Y-92870953D01*
X127417220Y-92873833D01*
X127149150Y-92873833D01*
X127081029Y-92853831D01*
X127034536Y-92800175D01*
X127027449Y-92780464D01*
X127026539Y-92777070D01*
X127024154Y-92766318D01*
X127019479Y-92739807D01*
X127017565Y-92728950D01*
X127012051Y-92719401D01*
X127010824Y-92716029D01*
X127009316Y-92712795D01*
X127006463Y-92702146D01*
X126984690Y-92671050D01*
X126978798Y-92661803D01*
X126959818Y-92628929D01*
X126930744Y-92604533D01*
X126922641Y-92597107D01*
X126880619Y-92555085D01*
X126846593Y-92492773D01*
X126846135Y-92441409D01*
X126857871Y-92382406D01*
X126859078Y-92370151D01*
X126859078Y-92369436D01*
X126854603Y-92354197D01*
X126853213Y-92352992D01*
X126845530Y-92351321D01*
X126629904Y-92351321D01*
X126626500Y-92351154D01*
X126624826Y-92350821D01*
X125985330Y-92350821D01*
X125983656Y-92351154D01*
X125980252Y-92351321D01*
X125769194Y-92351321D01*
X125753955Y-92355796D01*
X125752750Y-92357186D01*
X125751079Y-92364869D01*
X125751079Y-92370149D01*
X125752287Y-92382409D01*
X125763393Y-92438252D01*
X125772711Y-92460747D01*
X125783344Y-92476661D01*
X125804578Y-92546662D01*
X125804578Y-92871069D01*
X125804911Y-92872743D01*
X125805078Y-92876147D01*
X125805078Y-93026495D01*
X125804911Y-93029899D01*
X125804578Y-93031573D01*
X125804578Y-93671069D01*
X125804911Y-93672743D01*
X125805078Y-93676147D01*
X125805078Y-93887205D01*
X125809553Y-93902444D01*
X125810943Y-93903649D01*
X125818626Y-93905320D01*
X125823906Y-93905320D01*
X125836166Y-93904112D01*
X125892009Y-93893006D01*
X125914504Y-93883688D01*
X125930418Y-93873055D01*
X126000419Y-93851821D01*
X126074934Y-93851821D01*
X126143055Y-93871823D01*
X126189548Y-93925479D01*
X126200925Y-93979359D01*
X126200840Y-93986282D01*
X126199459Y-93995154D01*
X126218048Y-94137310D01*
X126275788Y-94268534D01*
X126331252Y-94334517D01*
X126358333Y-94366734D01*
X126386854Y-94431750D01*
X126375698Y-94501864D01*
X126328405Y-94554817D01*
X126261882Y-94573809D01*
X126059877Y-94573809D01*
X126048894Y-94573329D01*
X126022084Y-94570983D01*
X126022083Y-94570983D01*
X126011099Y-94570022D01*
X125974430Y-94579847D01*
X125963716Y-94582222D01*
X125926344Y-94588812D01*
X125916795Y-94594326D01*
X125913423Y-94595553D01*
X125910189Y-94597061D01*
X125899540Y-94599914D01*
X125868444Y-94621687D01*
X125859197Y-94627579D01*
X125826323Y-94646559D01*
X125805115Y-94671834D01*
X125801933Y-94675626D01*
X125794507Y-94683730D01*
X125451317Y-95026921D01*
X125389004Y-95060946D01*
X125362221Y-95063826D01*
X125224242Y-95063826D01*
X125156121Y-95043824D01*
X125135147Y-95026921D01*
X125085482Y-94977256D01*
X124978251Y-94927253D01*
X124929394Y-94920821D01*
X124480762Y-94920821D01*
X124431905Y-94927253D01*
X124416676Y-94934354D01*
X124346487Y-94945017D01*
X124281673Y-94916040D01*
X124274329Y-94909256D01*
X123208189Y-93843116D01*
X123174163Y-93780804D01*
X123179228Y-93709989D01*
X123221775Y-93653153D01*
X123288295Y-93628342D01*
X123297284Y-93628021D01*
X124192610Y-93628021D01*
X124260731Y-93648023D01*
X124307224Y-93701679D01*
X124308640Y-93706082D01*
X124309041Y-93705916D01*
X124313790Y-93717382D01*
X124316211Y-93729552D01*
X124360526Y-93795873D01*
X124426847Y-93840188D01*
X124439016Y-93842609D01*
X124439017Y-93842609D01*
X124479262Y-93850614D01*
X124485330Y-93851821D01*
X124809737Y-93851821D01*
X124879738Y-93873055D01*
X124895653Y-93883689D01*
X124918144Y-93893005D01*
X124973993Y-93904114D01*
X124986248Y-93905321D01*
X124986963Y-93905321D01*
X125002202Y-93900846D01*
X125003407Y-93899456D01*
X125005078Y-93891773D01*
X125005078Y-93887205D01*
X125305078Y-93887205D01*
X125309553Y-93902444D01*
X125310943Y-93903649D01*
X125318626Y-93905320D01*
X125323906Y-93905320D01*
X125336163Y-93904113D01*
X125380496Y-93895295D01*
X125429657Y-93895295D01*
X125473993Y-93904114D01*
X125486248Y-93905321D01*
X125486963Y-93905321D01*
X125502202Y-93900846D01*
X125503407Y-93899456D01*
X125505078Y-93891773D01*
X125505078Y-93519436D01*
X125500603Y-93504197D01*
X125499213Y-93502992D01*
X125491530Y-93501321D01*
X125323193Y-93501321D01*
X125307954Y-93505796D01*
X125306749Y-93507186D01*
X125305078Y-93514869D01*
X125305078Y-93887205D01*
X125005078Y-93887205D01*
X125005078Y-93676147D01*
X125005245Y-93672743D01*
X125005578Y-93671069D01*
X125005578Y-93183206D01*
X125305078Y-93183206D01*
X125309553Y-93198445D01*
X125310943Y-93199650D01*
X125318626Y-93201321D01*
X125486963Y-93201321D01*
X125502202Y-93196846D01*
X125503407Y-93195456D01*
X125505078Y-93187773D01*
X125505078Y-92815437D01*
X125500603Y-92800198D01*
X125499213Y-92798993D01*
X125491530Y-92797322D01*
X125486250Y-92797322D01*
X125473993Y-92798529D01*
X125429660Y-92807347D01*
X125380499Y-92807347D01*
X125336163Y-92798528D01*
X125323908Y-92797321D01*
X125323193Y-92797321D01*
X125307954Y-92801796D01*
X125306749Y-92803186D01*
X125305078Y-92810869D01*
X125305078Y-93183206D01*
X125005578Y-93183206D01*
X125005578Y-93031573D01*
X125005245Y-93029899D01*
X125005078Y-93026495D01*
X125005078Y-92876147D01*
X125005245Y-92872743D01*
X125005578Y-92871069D01*
X125005578Y-92531573D01*
X124994504Y-92475900D01*
X124994504Y-92426742D01*
X125005578Y-92371069D01*
X125005578Y-92033206D01*
X125751078Y-92033206D01*
X125755553Y-92048445D01*
X125756943Y-92049650D01*
X125764626Y-92051321D01*
X126136963Y-92051321D01*
X126152202Y-92046846D01*
X126153407Y-92045456D01*
X126155078Y-92037773D01*
X126155078Y-92033206D01*
X126455078Y-92033206D01*
X126459553Y-92048445D01*
X126460943Y-92049650D01*
X126468626Y-92051321D01*
X126840962Y-92051321D01*
X126856201Y-92046846D01*
X126857406Y-92045456D01*
X126859077Y-92037773D01*
X126859077Y-92032493D01*
X126857870Y-92020236D01*
X126849052Y-91975903D01*
X126849052Y-91926742D01*
X126857871Y-91882406D01*
X126859078Y-91870151D01*
X126859078Y-91869436D01*
X126854603Y-91854197D01*
X126853213Y-91852992D01*
X126845530Y-91851321D01*
X126473193Y-91851321D01*
X126457954Y-91855796D01*
X126456749Y-91857186D01*
X126455078Y-91864869D01*
X126455078Y-92033206D01*
X126155078Y-92033206D01*
X126155078Y-91869436D01*
X126150603Y-91854197D01*
X126149213Y-91852992D01*
X126141530Y-91851321D01*
X125769194Y-91851321D01*
X125753955Y-91855796D01*
X125752750Y-91857186D01*
X125751079Y-91864869D01*
X125751079Y-91870149D01*
X125752286Y-91882406D01*
X125761104Y-91926739D01*
X125761104Y-91975900D01*
X125752285Y-92020236D01*
X125751078Y-92032491D01*
X125751078Y-92033206D01*
X125005578Y-92033206D01*
X125005578Y-92031573D01*
X124994504Y-91975900D01*
X124994504Y-91926742D01*
X125005578Y-91871069D01*
X125005578Y-91677821D01*
X125025580Y-91609700D01*
X125079236Y-91563207D01*
X125131578Y-91551821D01*
X125324826Y-91551821D01*
X125380499Y-91540747D01*
X125429657Y-91540747D01*
X125485330Y-91551821D01*
X125824826Y-91551821D01*
X125826500Y-91551488D01*
X125829904Y-91551321D01*
X125980252Y-91551321D01*
X125983656Y-91551488D01*
X125985330Y-91551821D01*
X126324826Y-91551821D01*
X126326500Y-91551488D01*
X126329904Y-91551321D01*
X126840962Y-91551321D01*
X126856201Y-91546846D01*
X126857406Y-91545456D01*
X126859077Y-91537773D01*
X126859077Y-91532493D01*
X126857869Y-91520233D01*
X126846763Y-91464390D01*
X126837445Y-91441894D01*
X126795095Y-91378513D01*
X126777885Y-91361303D01*
X126775314Y-91359585D01*
X126770975Y-91354393D01*
X126769109Y-91352527D01*
X126769276Y-91352360D01*
X126729787Y-91305108D01*
X126720940Y-91234665D01*
X126751581Y-91170621D01*
X126811983Y-91133310D01*
X126845317Y-91128821D01*
X127517233Y-91128821D01*
X127585354Y-91148823D01*
G37*
G04 #@! TD.AperFunction*
M02*
